<svg xmlns="http://www.w3.org/2000/svg" viewBox="0 0 57 57">
  <defs>
    <style>
      .cls-1 {
        fill: #09ace3;
      }

      .cls-2 {
        fill: #fff;
      }
    </style>
  </defs>
  <g id="Groupe_5" data-name="Groupe 5" transform="translate(-70 -1558)">
    <circle id="Ellipse_1_copie_2" data-name="Ellipse 1 copie 2" class="cls-1" cx="28.5" cy="28.5" r="28.5" transform="translate(70 1558)"/>
    <path id="Forme_7" data-name="Forme 7" class="cls-2" d="M92.49,1595.871a15.2,15.2,0,0,1-7.116-1.509l-1.241-.612c-3.245-1.6-4.61-2.26-5.776-2.233h0a1.138,1.138,0,0,1-1.122-.751,1.054,1.054,0,0,1,.443-1.234c3.26-2.13,7.377-4.666,9.42-5.3.85-2.546,5.436-13.845,19.187-11.417,4.411.779,7.713,2.7,9.815,5.7,3.836,5.481,2.27,12.553,2.2,12.852l-.164.713-.768-.049c-.4-.026-5.653-.377-12.228-1.487a5.388,5.388,0,0,1-.432.487A19.071,19.071,0,0,1,92.49,1595.871Zm-12.479-5.81a33.572,33.572,0,0,1,4.948,2.195l1.238.61c6.456,3.172,13.934-.059,16.893-2.69a74.722,74.722,0,0,1-15.391-4.369A43.31,43.31,0,0,0,80.01,1590.061Zm26.082-1.093c4.869.8,8.931,1.178,10.594,1.315.271-1.858.676-6.919-2.079-10.847a12.027,12.027,0,0,0-6.972-4.594C108.311,1578.907,107.879,1585.22,106.092,1588.968Zm-17.218-4.511a76.5,76.5,0,0,0,15.412,4.2c1.79-3.3,2.364-10.161,1.463-14.226C93.832,1572.439,89.774,1581.8,88.874,1584.457Z"/>
  </g>
</svg>
