<svg xmlns="http://www.w3.org/2000/svg" viewBox="0 0 57 57">
  <defs>
    <style>
      .cls-1 {
        fill: #09ace3;
      }

      .cls-2 {
        fill: #fff;
      }
    </style>
  </defs>
  <g id="Groupe_3" data-name="Groupe 3" transform="translate(-70 -1402)">
    <circle id="Ellipse_1_copie" data-name="Ellipse 1 copie" class="cls-1" cx="28.5" cy="28.5" r="28.5" transform="translate(70 1402)"/>
    <path id="Forme_4" data-name="Forme 4" class="cls-2" d="M115.842,1419.812c-1.556-4.966-7.643-8.814-16.7-8.814-8.824,0-15.781,3.865-16.13,8.868H83v.389s0,0,0,0,0,0,0,.005v17.359a7.424,7.424,0,0,0,3.069,5.972c2.7,1.968,6.043,4.4,12.582,4.4q.428,0,.875-.014c7.109-.227,11.128-1.99,13.248-3.759a8.932,8.932,0,0,0,3.187-6.311v-16.5A3.98,3.98,0,0,0,115.842,1419.812Zm-3.887,12.024c-1.376,1.384-5.126,4.3-12.547,4.668-9.4.466-13.31-4.155-13.607-4.525V1426.2c2.884,2.6,7.736,4.1,13.344,4.1a22.941,22.941,0,0,0,12.81-3.687Zm-12.81-18.1c7.982,0,13.024,3.374,12.944,6.523-.066,2.609-4.962,5.739-12.944,5.739s-13.34-2.587-13.344-5.736v-.007C85.805,1417.108,91.166,1413.738,99.145,1413.738Zm11.808,28.009c-1.78,1.484-5.222,3.3-11.52,3.5-6.135.2-8.963-1.857-11.692-3.843a4.692,4.692,0,0,1-1.94-3.775v-1.946a20.491,20.491,0,0,0,12.3,3.6q.7,0,1.448-.036a23.213,23.213,0,0,0,12.406-3.83v2.5C111.955,1439.393,112.1,1440.791,110.953,1441.747Z"/>
  </g>
</svg>
