<svg xmlns="http://www.w3.org/2000/svg" viewBox="0 0 57 57">
  <defs>
    <style>
      .cls-1 {
        fill: #09ace3;
      }

      .cls-2 {
        fill: #fff;
      }
    </style>
  </defs>
  <g id="Groupe_2" data-name="Groupe 2" transform="translate(-70 -1257)">
    <circle id="Ellipse_1_copie_3" data-name="Ellipse 1 copie 3" class="cls-1" cx="28.5" cy="28.5" r="28.5" transform="translate(70 1257)"/>
    <path id="Forme_5" data-name="Forme 5" class="cls-2" d="M113.618,1273.72H106v-2.232a4.081,4.081,0,0,0-4-4.151H97.123a4.081,4.081,0,0,0-4,4.151v2.232H86.35a3.733,3.733,0,0,0-3.657,3.8v16.515a3.733,3.733,0,0,0,3.657,3.8h27.268a3.733,3.733,0,0,0,3.657-3.8v-16.515A3.733,3.733,0,0,0,113.618,1273.72Zm-16.2,12.794h4.8v.922a1.459,1.459,0,0,1-1.43,1.485H98.848a1.46,1.46,0,0,1-1.431-1.485Zm0-1.478v-.4a1.46,1.46,0,0,1,1.431-1.485h1.936a1.459,1.459,0,0,1,1.43,1.485v.4Zm3.367-2.931H98.848a2.491,2.491,0,0,0-2.441,2.533v.4H87.581a3.166,3.166,0,0,1-2.876-1.925v-5.594a1.679,1.679,0,0,1,1.645-1.708h27.268a1.679,1.679,0,0,1,1.645,1.708v5.594a3.166,3.166,0,0,1-2.876,1.925h-9.163v-.4A2.491,2.491,0,0,0,100.784,1282.1Zm-5.639-10.617a2.02,2.02,0,0,1,1.978-2.054H102a2.019,2.019,0,0,1,1.978,2.054v2.232H95.144Zm18.474,24.253H86.35a1.679,1.679,0,0,1-1.645-1.708v-8.6a4.447,4.447,0,0,0,2.876,1.081h8.826v.922a2.491,2.491,0,0,0,2.441,2.534h1.936a2.491,2.491,0,0,0,2.44-2.534v-.922h9.163a4.447,4.447,0,0,0,2.876-1.081v8.6A1.679,1.679,0,0,1,113.618,1295.74Z"/>
  </g>
</svg>
