<svg xmlns="http://www.w3.org/2000/svg" xmlns:xlink="http://www.w3.org/1999/xlink" viewBox="0 0 66 66">
  <defs>
    <style>
      .cls-1 {
        fill: url(#linear-gradient);
      }

      .cls-2 {
        fill: #fff;
      }
    </style>
    <linearGradient id="linear-gradient" x1="-0.25" y1="0.758" x2="1.25" y2="0.242" gradientUnits="objectBoundingBox">
      <stop offset="0" stop-color="#073471"/>
      <stop offset="0.273" stop-color="#01427c"/>
      <stop offset="0.995" stop-color="#2dc0f7"/>
      <stop offset="1" stop-color="#2dc0f7"/>
    </linearGradient>
  </defs>
  <g id="Groupe_1" data-name="Groupe 1" transform="translate(-662 -807)">
    <circle id="Ellipse_1_copie_2" data-name="Ellipse 1 copie 2" class="cls-1" cx="33" cy="33" r="33" transform="translate(662 807)"/>
    <path id="Forme_11" data-name="Forme 11" class="cls-2" d="M680,839.5c0-.241.025-.477.036-.716h5.131c-.015.239-.035.475-.035.716a11.365,11.365,0,0,0,19.961,7.441l-4.265-4.338h12.1v12.3l-4.221-4.294A16.5,16.5,0,0,1,680,839.5Zm27.851-.716a11.351,11.351,0,0,0-18.82-7.833l4.279,4.352h-12.1V823l4.211,4.283A16.5,16.5,0,0,1,713,838.783Z"/>
  </g>
</svg>
