<svg xmlns="http://www.w3.org/2000/svg" xmlns:xlink="http://www.w3.org/1999/xlink" viewBox="0 0 292 183.153">
  <defs>
    <style>
      .cls-1 {
        fill: url(#linear-gradient);
      }

      .cls-2 {
        fill: #06366f;
        font-size: 37.167px;
        font-family: ArialMT, Arial;
        letter-spacing: -0.018em;
      }

      .cls-3 {
        fill: url(#linear-gradient-2);
      }
    </style>
    <linearGradient id="linear-gradient" x1="-0.25" y1="0.566" x2="1.25" y2="0.434" gradientUnits="objectBoundingBox">
      <stop offset="0" stop-color="#073471"/>
      <stop offset="0.273" stop-color="#01427c"/>
      <stop offset="1" stop-color="#019dd4"/>
    </linearGradient>
    <linearGradient id="linear-gradient-2" x1="-0.25" y1="1.049" x2="1.25" y2="-0.049" gradientUnits="objectBoundingBox">
      <stop offset="0" stop-color="#073471"/>
      <stop offset="0.273" stop-color="#01427c"/>
      <stop offset="0.602" stop-color="#019dd4"/>
      <stop offset="1" stop-color="#019dd4"/>
    </linearGradient>
  </defs>
  <g id="Groupe_8" data-name="Groupe 8" transform="translate(-217.546 -1272.845)">
    <path id="Forme_10" data-name="Forme 10" class="cls-1" d="M316.419,1331.915a59.093,59.093,0,1,1,59.093,59.069A59.149,59.149,0,0,1,316.419,1331.915Zm7.814,0a51.279,51.279,0,1,0,51.279-51.259A51.327,51.327,0,0,0,324.233,1331.915Zm48.349,33.2v-28.8H343.768a3.905,3.905,0,1,1,0-7.81h28.814v-28.8a3.907,3.907,0,0,1,7.814,0v28.8H409.21a3.905,3.905,0,1,1,0,7.81H380.4v28.8a3.907,3.907,0,0,1-7.814,0Z"/>
    <g id="Ajouter_un_projet..." data-name="Ajouter un projet...">
      <text id="Ajouter_un_projet...-2" data-name="Ajouter un projet..." class="cls-2" transform="translate(218.546 1447.998)"><tspan x="0" y="0">Ajouter un projet...</tspan></text>
      <path id="Gradient_Overlay" data-name="Gradient Overlay" class="cls-3" d="M218.492,1448l10.217-26.6H232.5L243.39,1448H239.38l-3.1-8.058H225.152L222.23,1448Zm7.676-10.925h9.019l-2.777-7.368q-1.27-3.357-1.887-5.517a33.909,33.909,0,0,1-1.434,5.081Zm18.931-11.887v-3.793h3.267v3.793Zm-4.138,30.288.617-2.776a6.57,6.57,0,0,0,1.543.254,1.731,1.731,0,0,0,1.488-.662,6.762,6.762,0,0,0,.49-3.312v-20.253h3.267v20.326q0,3.557-.926,4.954a4.32,4.32,0,0,1-3.92,1.815A9.46,9.46,0,0,1,240.961,1455.475Zm10.528-17.113q0-5.353,2.976-7.931a8.968,8.968,0,0,1,6.061-2.141,8.647,8.647,0,0,1,6.5,2.6,9.908,9.908,0,0,1,2.523,7.2,12.75,12.75,0,0,1-1.116,5.853,7.9,7.9,0,0,1-3.248,3.312,9.458,9.458,0,0,1-4.655,1.18,8.663,8.663,0,0,1-6.542-2.6Q251.489,1443.243,251.489,1438.362Zm3.357,0q0,3.7,1.615,5.544a5.378,5.378,0,0,0,8.112-.009q1.615-1.851,1.615-5.644a7.963,7.963,0,0,0-1.624-5.417,5.385,5.385,0,0,0-8.1-.009Q254.846,1434.659,254.846,1438.362ZM285.337,1448v-2.831a7.054,7.054,0,0,1-6.116,3.267,7.793,7.793,0,0,1-3.185-.653,5.247,5.247,0,0,1-2.2-1.642,6.156,6.156,0,0,1-1.007-2.423,16.59,16.59,0,0,1-.2-3.049v-11.941H275.9v10.689a19.046,19.046,0,0,0,.2,3.448,3.407,3.407,0,0,0,1.307,2.024,4.048,4.048,0,0,0,2.468.735,5.377,5.377,0,0,0,2.758-.753,4.188,4.188,0,0,0,1.824-2.051,10.29,10.29,0,0,0,.535-3.766v-10.326h3.267V1448Zm14.5-2.922.472,2.885a12.123,12.123,0,0,1-2.468.29,5.588,5.588,0,0,1-2.758-.562,3.151,3.151,0,0,1-1.379-1.479,11.7,11.7,0,0,1-.4-3.856v-11.088h-2.4v-2.541h2.4v-4.773l3.248-1.96v6.733h3.285v2.541h-3.285v11.27a5.691,5.691,0,0,0,.172,1.8,1.36,1.36,0,0,0,.563.635,2.174,2.174,0,0,0,1.116.236A10.619,10.619,0,0,0,299.84,1445.076Zm15.718-3.285,3.375.417a8.235,8.235,0,0,1-2.958,4.591,10.021,10.021,0,0,1-12.222-.971q-2.477-2.6-2.477-7.3,0-4.863,2.5-7.549a8.477,8.477,0,0,1,6.5-2.686,8.239,8.239,0,0,1,6.315,2.631q2.45,2.631,2.45,7.4,0,.29-.018.871H304.651a7.406,7.406,0,0,0,1.8,4.864,5.347,5.347,0,0,0,4.029,1.688,5,5,0,0,0,3.067-.944A6.264,6.264,0,0,0,315.558,1441.792Zm-10.725-5.281h10.762a6.529,6.529,0,0,0-1.234-3.648,5.007,5.007,0,0,0-4.047-1.887,5.189,5.189,0,0,0-3.784,1.506A5.962,5.962,0,0,0,304.833,1436.51ZM322.33,1448v-19.273h2.94v2.922a7.973,7.973,0,0,1,2.078-2.7,3.627,3.627,0,0,1,2.1-.653,6.372,6.372,0,0,1,3.357,1.052l-1.125,3.031a4.674,4.674,0,0,0-2.4-.708,3.111,3.111,0,0,0-1.924.644,3.49,3.49,0,0,0-1.216,1.788,12.723,12.723,0,0,0-.544,3.811V1448Zm34.032,0v-2.831a7.054,7.054,0,0,1-6.116,3.267,7.793,7.793,0,0,1-3.185-.653,5.246,5.246,0,0,1-2.2-1.642,6.155,6.155,0,0,1-1.007-2.423,16.587,16.587,0,0,1-.2-3.049v-11.941h3.267v10.689a19.046,19.046,0,0,0,.2,3.448,3.407,3.407,0,0,0,1.307,2.024,4.048,4.048,0,0,0,2.468.735,5.376,5.376,0,0,0,2.758-.753,4.188,4.188,0,0,0,1.824-2.051,10.29,10.29,0,0,0,.535-3.766v-10.326h3.267V1448Zm7.37,0v-19.273h2.94v2.74a6.928,6.928,0,0,1,6.134-3.176,8.048,8.048,0,0,1,3.2.626,5.039,5.039,0,0,1,2.187,1.642,6.3,6.3,0,0,1,1.016,2.414,18.708,18.708,0,0,1,.181,3.176V1448h-3.267v-11.723a8.8,8.8,0,0,0-.381-2.985,3.14,3.14,0,0,0-1.352-1.579,4.3,4.3,0,0,0-2.278-.59,5.292,5.292,0,0,0-3.6,1.325Q367,1433.77,367,1437.472V1448Zm29.658,7.386v-26.659h2.976v2.5a7.336,7.336,0,0,1,2.377-2.2,6.533,6.533,0,0,1,3.212-.735,7.615,7.615,0,0,1,4.355,1.27,7.8,7.8,0,0,1,2.849,3.584,13.086,13.086,0,0,1,.962,5.072,12.883,12.883,0,0,1-1.062,5.326,8,8,0,0,1-3.085,3.63,7.921,7.921,0,0,1-4.256,1.261,6.147,6.147,0,0,1-2.931-.69,6.677,6.677,0,0,1-2.132-1.742v9.382Zm2.958-16.914q0,3.72,1.506,5.5a4.619,4.619,0,0,0,3.648,1.778,4.722,4.722,0,0,0,3.729-1.842q1.552-1.842,1.552-5.708a8.515,8.515,0,0,0-1.515-5.517,4.562,4.562,0,0,0-3.62-1.833,4.7,4.7,0,0,0-3.693,1.951A8.728,8.728,0,0,0,396.348,1438.47ZM413.355,1448v-19.273h2.94v2.922a7.973,7.973,0,0,1,2.078-2.7,3.627,3.627,0,0,1,2.1-.653,6.372,6.372,0,0,1,3.357,1.052l-1.125,3.031a4.674,4.674,0,0,0-2.4-.708,3.111,3.111,0,0,0-1.924.644,3.49,3.49,0,0,0-1.216,1.788,12.724,12.724,0,0,0-.544,3.811V1448Zm10.528-9.636q0-5.353,2.976-7.931a8.968,8.968,0,0,1,6.061-2.141,8.647,8.647,0,0,1,6.5,2.6,9.908,9.908,0,0,1,2.523,7.2,12.75,12.75,0,0,1-1.116,5.853,7.9,7.9,0,0,1-3.248,3.312,9.458,9.458,0,0,1-4.655,1.18,8.663,8.663,0,0,1-6.542-2.6Q423.883,1443.243,423.883,1438.362Zm3.357,0q0,3.7,1.615,5.544a5.378,5.378,0,0,0,8.112-.009q1.615-1.851,1.615-5.644a7.963,7.963,0,0,0-1.624-5.417,5.385,5.385,0,0,0-8.1-.009Q427.241,1434.659,427.241,1438.362Zm17.842-13.175v-3.793h3.267v3.793Zm-4.138,30.288.617-2.776a6.569,6.569,0,0,0,1.543.254,1.731,1.731,0,0,0,1.488-.662,6.762,6.762,0,0,0,.49-3.312v-20.253h3.267v20.326q0,3.557-.926,4.954a4.319,4.319,0,0,1-3.92,1.815A9.459,9.459,0,0,1,440.945,1455.475Zm24.937-13.683,3.375.417a8.235,8.235,0,0,1-2.958,4.591,10.021,10.021,0,0,1-12.223-.971q-2.477-2.6-2.477-7.3,0-4.863,2.5-7.549a8.477,8.477,0,0,1,6.5-2.686,8.24,8.24,0,0,1,6.315,2.631q2.45,2.631,2.45,7.4,0,.29-.018.871H454.975a7.406,7.406,0,0,0,1.8,4.864,5.347,5.347,0,0,0,4.029,1.688,5,5,0,0,0,3.067-.944A6.264,6.264,0,0,0,465.882,1441.792Zm-10.725-5.281h10.762a6.529,6.529,0,0,0-1.234-3.648,5.007,5.007,0,0,0-4.047-1.887,5.189,5.189,0,0,0-3.784,1.506A5.962,5.962,0,0,0,455.157,1436.51Zm24.665,8.566.472,2.885a12.123,12.123,0,0,1-2.468.29,5.588,5.588,0,0,1-2.758-.562,3.151,3.151,0,0,1-1.379-1.479,11.7,11.7,0,0,1-.4-3.856v-11.088h-2.4v-2.541h2.4v-4.773l3.248-1.96v6.733h3.285v2.541h-3.285v11.27a5.692,5.692,0,0,0,.172,1.8,1.361,1.361,0,0,0,.563.635,2.174,2.174,0,0,0,1.116.236A10.62,10.62,0,0,0,479.822,1445.076Zm3.451,2.922v-3.72h3.72V1448Zm9.657,0v-3.72h3.72V1448Zm9.657,0v-3.72h3.72V1448Z"/>
    </g>
  </g>
</svg>
