<svg xmlns="http://www.w3.org/2000/svg" viewBox="0 0 24.839 27.31">
  <defs>
    <style>
      .cls-1 {
        fill: none;
      }

      .cls-2, .cls-3 {
        stroke: none;
      }

      .cls-3 {
        fill: #666;
      }
    </style>
  </defs>
  <g id="Forme_8" data-name="Forme 8" class="cls-1" transform="translate(-465.058 -723.372)">
    <path class="cls-2" d="M489.9,750.682l-1.424-3.858s-.456-2.954-6.324-3.979c0,0-1.31-.362-1.367-1.386s-.057-1.688-.057-1.688-.045-.46.958-2.163a10.129,10.129,0,0,0,1.776-5.915c0-4.595-2.678-8.32-5.982-8.32s-5.982,3.725-5.982,8.32a10.035,10.035,0,0,0,1.9,6.083l-.023.006s.061.055.151.155c.05.061.1.122.151.181a3.3,3.3,0,0,1,.724,2.136v1.206s.057,1.085-1.424,1.326-4.5,1.266-5.071,2.05a15.922,15.922,0,0,0-2.848,5.848Z"/>
    <path class="cls-3" d="M 487.2135620117188 748.81201171875 L 486.7185668945313 747.4712524414063 L 486.6533508300781 747.2947387695313 L 486.6374816894531 747.1917724609375 C 486.5582275390625 746.984375 485.8222351074219 745.3847045898438 481.827392578125 744.6868896484375 L 481.7386474609375 744.67138671875 L 481.6517639160156 744.6473999023438 C 480.3548583984375 744.2894897460938 479.0056457519531 743.1966552734375 478.9149169921875 741.5623779296875 C 478.86376953125 740.64453125 478.856201171875 739.9989624023438 478.8551025390625 739.8196411132813 C 478.8385009765625 739.309814453125 479.006103515625 738.4677734375 480.0715637207031 736.6580810546875 L 480.1174011230469 736.5802001953125 L 480.1705017089844 736.5071411132813 C 481.0721435546875 735.2670288085938 481.5892944335938 733.5119018554688 481.5892944335938 731.69189453125 C 481.5892944335938 729.8848266601563 481.0788879394531 728.1384887695313 480.18896484375 726.9007568359375 C 479.7435913085938 726.2813720703125 478.7991638183594 725.2423095703125 477.4775085449219 725.2423095703125 C 476.1557006835938 725.2423095703125 475.2112426757813 726.2814331054688 474.7658996582031 726.9007568359375 C 473.8759155273438 728.1384887695313 473.3655090332031 729.8848266601563 473.3655090332031 731.69189453125 C 473.3655090332031 733.58349609375 473.9173583984375 735.3844604492188 474.8795471191406 736.6329345703125 L 474.9381408691406 736.708984375 L 474.9471130371094 736.7189331054688 L 474.9749450683594 736.7531127929688 L 474.9918518066406 736.7738037109375 C 475.0272521972656 736.817138671875 475.0606384277344 736.858154296875 475.0856628417969 736.8867797851563 L 475.1195678710938 736.9256591796875 L 475.1513061523438 736.96630859375 C 475.2325134277344 737.0704345703125 475.3095703125 737.1768188476563 475.3823852539063 737.285400390625 L 476.5975036621094 738.862060546875 L 476.1338500976563 738.9848022460938 C 476.2369689941406 739.4111938476563 476.2839660644531 739.8475341796875 476.2712097167969 740.2830200195313 L 476.2712097167969 741.43408203125 C 476.2762756347656 741.719970703125 476.2337036132813 742.3141479492188 475.8713073730469 742.9533081054688 C 475.57861328125 743.4695434570313 474.8524169921875 744.3738403320313 473.2776489257813 744.6301879882813 C 471.9941711425781 744.8391723632813 469.8749694824219 745.6295776367188 469.3558349609375 746.020751953125 L 469.3505554199219 746.0280151367188 C 468.9765930175781 746.5405883789063 468.2721862792969 747.5062255859375 467.6712646484375 748.81201171875 L 487.2135620117188 748.81201171875 M 489.8973083496094 750.6820068359375 L 465.0581970214844 750.6820068359375 C 465.74169921875 747.72802734375 467.3369140625 745.6181030273438 467.906494140625 744.8344116210938 C 468.4764099121094 744.0505981445313 471.4956970214844 743.0256958007813 472.9771118164063 742.7844848632813 C 474.4581909179688 742.5433959960938 474.4012145996094 741.4583129882813 474.4012145996094 741.4583129882813 L 474.4012145996094 740.252685546875 C 474.4382934570313 739.2705078125 473.9924926757813 738.5211181640625 473.6769104003906 738.1165771484375 C 473.6257019042969 738.0579223632813 473.5762023925781 737.9967041015625 473.5263977050781 737.9357299804688 C 473.4364013671875 737.8355102539063 473.3757934570313 737.7808227539063 473.3757934570313 737.7808227539063 C 473.3757934570313 737.7808227539063 473.3865051269531 737.777587890625 473.3984069824219 737.7744750976563 C 472.2280883789063 736.2559814453125 471.4955139160156 734.0933227539063 471.4955139160156 731.69189453125 C 471.4955139160156 727.0972290039063 474.1737976074219 723.372314453125 477.4775085449219 723.372314453125 C 480.781005859375 723.372314453125 483.4592895507813 727.0972290039063 483.4592895507813 731.69189453125 C 483.4592895507813 734.0059814453125 482.7795104980469 736.0986938476563 481.6830139160156 737.6068115234375 C 480.6802062988281 739.3101196289063 480.7249145507813 739.7702026367188 480.7249145507813 739.7702026367188 C 480.7249145507813 739.7702026367188 480.7249145507813 740.4334716796875 480.7820129394531 741.4583129882813 C 480.8388977050781 742.4832153320313 482.1492004394531 742.8447875976563 482.1492004394531 742.8447875976563 C 488.01708984375 743.8698120117188 488.4728088378906 746.8236083984375 488.4728088378906 746.8236083984375 L 489.8973083496094 750.6820068359375 Z"/>
  </g>
</svg>
