<svg xmlns="http://www.w3.org/2000/svg" viewBox="0 0 38.427 27.474">
  <defs>
    <style>
      .cls-1 {
        fill: #94a9b3;
      }
    </style>
  </defs>
  <path id="Forme_12" data-name="Forme 12" class="cls-1" d="M78,1407c-3.155-.59-4.078-3.1-3-6,.517-1.391,1.731-2.379,4-3,0,0,10.263,7.168,19.527,4.951a27.733,27.733,0,0,1-15.324,4.535A28.221,28.221,0,0,1,78,1407Zm2.924-10.922s1.157-13.3,13.2-15.076c0,0,6.727,9.022,4.873,19,0,0-1.386.117-3.414.117C91.19,1400.118,83.777,1399.567,80.924,1396.077ZM103,1400c.992-14.708-7.715-19.94-7.715-19.94,13.135-.949,19.331,12.335,17.348,16.368-1.614,3.283-6.984,3.588-8.925,3.588C103.264,1400.016,103,1400,103,1400Z" transform="translate(-74.569 -1380.012)"/>
</svg>
