<svg xmlns="http://www.w3.org/2000/svg" xmlns:xlink="http://www.w3.org/1999/xlink" viewBox="0 0 589 89">
  <defs>
    <style>
      .cls-1 {
        font-size: 79.447px;
        font-family: ArialMT, Arial;
        letter-spacing: 0.001em;
      }

      .cls-2 {
        fill: url(#linear-gradient);
      }
    </style>
    <linearGradient id="linear-gradient" y1="0.414" x2="1" y2="0.586" gradientUnits="objectBoundingBox">
      <stop offset="0" stop-color="#073471"/>
      <stop offset="1" stop-color="#07abe2"/>
    </linearGradient>
  </defs>
  <g id="Code_d_invitation" data-name="Code d’invitation" transform="translate(-43.728 -162.107)">
    <text id="Code_d_invitation-2" data-name="Code d’invitation" class="cls-1" transform="translate(43.728 234.107)"><tspan x="0" y="0">Code d’invitation</tspan></text>
    <path id="Gradient_Overlay" data-name="Gradient Overlay" class="cls-2" d="M90.434,214.168l7.526,1.9q-2.366,9.271-8.515,14.14a23.462,23.462,0,0,1-15.032,4.868q-9.194,0-14.954-3.743a23.374,23.374,0,0,1-8.767-10.842,38.686,38.686,0,0,1-3.006-15.245,33.511,33.511,0,0,1,3.394-15.5A23.256,23.256,0,0,1,60.738,179.7a28.223,28.223,0,0,1,13.791-3.433,23.314,23.314,0,0,1,14.353,4.345,22.562,22.562,0,0,1,8.108,12.22l-7.409,1.746q-1.978-6.207-5.741-9.039a15.3,15.3,0,0,0-9.465-2.832,18.386,18.386,0,0,0-10.959,3.142,16.593,16.593,0,0,0-6.187,8.437,33.968,33.968,0,0,0-1.784,10.92,34.7,34.7,0,0,0,2.114,12.666,15.749,15.749,0,0,0,6.575,8.088,18.441,18.441,0,0,0,9.659,2.677A16.186,16.186,0,0,0,84.5,224.991Q88.882,221.344,90.434,214.168Zm13.385-.659q0-11.444,6.362-16.952a19.17,19.17,0,0,1,12.957-4.577,18.484,18.484,0,0,1,13.888,5.567q5.392,5.567,5.392,15.381,0,7.952-2.386,12.51a16.888,16.888,0,0,1-6.944,7.08,20.216,20.216,0,0,1-9.95,2.521q-8.651,0-13.985-5.547T103.819,213.508Zm7.177,0q0,7.914,3.453,11.851a11.5,11.5,0,0,0,17.34-.019q3.452-3.957,3.452-12.064,0-7.642-3.472-11.579a11.512,11.512,0,0,0-17.321-.019Q111,205.595,111,213.508Zm66.414,20.6v-5.2a12.814,12.814,0,0,1-11.521,6.129,16.156,16.156,0,0,1-9.058-2.715,17.857,17.857,0,0,1-6.4-7.584,26.211,26.211,0,0,1-2.269-11.192,29.292,29.292,0,0,1,2.056-11.192,16.216,16.216,0,0,1,6.168-7.7,16.49,16.49,0,0,1,9.194-2.677,13.739,13.739,0,0,1,11.366,5.664v-20.4h6.944v56.869Zm-22.073-20.56q0,7.914,3.336,11.832a10.059,10.059,0,0,0,7.875,3.918,9.875,9.875,0,0,0,7.778-3.743q3.2-3.743,3.2-11.424,0-8.457-3.259-12.414a10.023,10.023,0,0,0-8.03-3.957,9.675,9.675,0,0,0-7.778,3.8Q155.337,205.362,155.337,213.547Zm67.811,7.293,7.215.892a17.6,17.6,0,0,1-6.323,9.814q-4.616,3.491-11.793,3.491-9.039,0-14.334-5.567t-5.3-15.614q0-10.4,5.353-16.138a18.121,18.121,0,0,1,13.888-5.741,17.613,17.613,0,0,1,13.5,5.625q5.237,5.625,5.237,15.827,0,.621-.039,1.862H199.834q.388,6.789,3.84,10.4a11.43,11.43,0,0,0,8.612,3.608,10.685,10.685,0,0,0,6.556-2.017A13.39,13.39,0,0,0,223.148,220.84Zm-22.926-11.289h23q-.466-5.2-2.638-7.8a10.7,10.7,0,0,0-8.651-4.034,11.093,11.093,0,0,0-8.088,3.22A12.743,12.743,0,0,0,200.222,209.551Zm87.868,24.556v-5.2a12.814,12.814,0,0,1-11.521,6.129,16.156,16.156,0,0,1-9.058-2.715,17.857,17.857,0,0,1-6.4-7.584,26.212,26.212,0,0,1-2.269-11.192,29.292,29.292,0,0,1,2.056-11.192,16.216,16.216,0,0,1,6.168-7.7,16.49,16.49,0,0,1,9.194-2.677,13.739,13.739,0,0,1,11.366,5.664v-20.4h6.944v56.869Zm-22.073-20.56q0,7.914,3.336,11.832a10.059,10.059,0,0,0,7.875,3.918,9.875,9.875,0,0,0,7.778-3.743q3.2-3.743,3.2-11.424,0-8.457-3.259-12.414a10.023,10.023,0,0,0-8.03-3.957,9.675,9.675,0,0,0-7.778,3.8Q266.017,205.362,266.017,213.547ZM305.2,184.763v-8.108h7.487v6.4q0,5.2-1.2,7.487a10.586,10.586,0,0,1-5.2,4.733l-1.707-2.754a6.064,6.064,0,0,0,3.123-2.7,11.308,11.308,0,0,0,1.144-5.062Zm18.2.5v-8.03h6.983v8.03Zm0,48.839v-41.2h6.983v41.2Zm17.691,0v-41.2h6.284v5.858q4.539-6.789,13.112-6.789a17.2,17.2,0,0,1,6.847,1.338A10.77,10.77,0,0,1,372,196.828a13.476,13.476,0,0,1,2.172,5.159,39.98,39.98,0,0,1,.388,6.789v25.331h-6.983v-25.06a18.811,18.811,0,0,0-.815-6.381,6.712,6.712,0,0,0-2.89-3.375,9.193,9.193,0,0,0-4.868-1.261,11.313,11.313,0,0,0-7.7,2.832q-3.239,2.832-3.239,10.745v22.5Zm55.708,0-15.672-41.2h7.371l8.845,24.672q1.435,4,2.638,8.3.931-3.259,2.6-7.836l9.155-25.137H418.9l-15.594,41.2Zm28.4-48.839v-8.03h6.983v8.03Zm0,48.839v-41.2h6.983v41.2Zm32.936-6.246,1.009,6.168a25.9,25.9,0,0,1-5.276.621,11.944,11.944,0,0,1-5.9-1.2,6.733,6.733,0,0,1-2.948-3.162q-.853-1.959-.853-8.243v-23.7h-5.121V192.91h5.121v-10.2l6.944-4.19V192.91h7.021v5.431h-7.021v24.09a12.169,12.169,0,0,0,.369,3.84,2.908,2.908,0,0,0,1.2,1.358,4.645,4.645,0,0,0,2.386.5A22.715,22.715,0,0,0,458.127,227.861Zm33.79,1.164a26,26,0,0,1-7.467,4.655,21.578,21.578,0,0,1-7.7,1.358q-6.789,0-10.435-3.317a10.947,10.947,0,0,1-3.646-8.476,11.273,11.273,0,0,1,1.377-5.528,11.4,11.4,0,0,1,3.608-4.015,16.964,16.964,0,0,1,5.024-2.289,49.9,49.9,0,0,1,6.207-1.047,63.821,63.821,0,0,0,12.452-2.405q.039-1.435.039-1.823,0-4.267-1.978-6.013-2.677-2.366-7.952-2.366-4.927,0-7.274,1.726t-3.472,6.11l-6.827-.931a16.917,16.917,0,0,1,3.065-7.08,13.433,13.433,0,0,1,6.168-4.151,27.511,27.511,0,0,1,9.349-1.455,24.745,24.745,0,0,1,8.573,1.241,11.3,11.3,0,0,1,4.849,3.123,10.983,10.983,0,0,1,2.172,4.752,39.315,39.315,0,0,1,.349,6.44v9.31a98.822,98.822,0,0,0,.446,12.317,15.538,15.538,0,0,0,1.765,4.946h-7.293A14.8,14.8,0,0,1,491.917,229.025Zm-.582-15.594a51.229,51.229,0,0,1-11.4,2.638,26.379,26.379,0,0,0-6.09,1.4,6.071,6.071,0,0,0-2.754,2.269,6.172,6.172,0,0,0,1.144,7.972q2.114,1.862,6.187,1.862a14.4,14.4,0,0,0,7.177-1.765,10.869,10.869,0,0,0,4.616-4.83,16.868,16.868,0,0,0,1.125-6.983Zm33.208,14.431,1.009,6.168a25.9,25.9,0,0,1-5.276.621,11.944,11.944,0,0,1-5.9-1.2,6.734,6.734,0,0,1-2.948-3.162q-.853-1.959-.853-8.243v-23.7h-5.121V192.91h5.121v-10.2l6.944-4.19V192.91h7.021v5.431h-7.021v24.09a12.17,12.17,0,0,0,.369,3.84,2.908,2.908,0,0,0,1.2,1.358,4.645,4.645,0,0,0,2.386.5A22.715,22.715,0,0,0,524.544,227.861Zm6.946-42.594v-8.03h6.983v8.03Zm0,48.839v-41.2h6.983v41.2Zm15.092-20.6q0-11.444,6.362-16.952a19.17,19.17,0,0,1,12.957-4.577,18.484,18.484,0,0,1,13.888,5.567q5.392,5.567,5.392,15.381,0,7.952-2.386,12.51a16.888,16.888,0,0,1-6.944,7.08,20.216,20.216,0,0,1-9.95,2.521q-8.651,0-13.985-5.547T546.581,213.508Zm7.177,0q0,7.914,3.453,11.851a11.5,11.5,0,0,0,17.34-.019Q578,221.383,578,213.276q0-7.642-3.472-11.579a11.512,11.512,0,0,0-17.321-.019Q553.758,205.595,553.758,213.508Zm39.686,20.6v-41.2h6.284v5.858q4.539-6.789,13.112-6.789a17.2,17.2,0,0,1,6.847,1.338,10.77,10.77,0,0,1,4.674,3.511,13.477,13.477,0,0,1,2.172,5.159,39.985,39.985,0,0,1,.388,6.789v25.331h-6.983v-25.06a18.811,18.811,0,0,0-.815-6.381,6.712,6.712,0,0,0-2.89-3.375,9.193,9.193,0,0,0-4.868-1.261,11.313,11.313,0,0,0-7.7,2.832q-3.239,2.832-3.239,10.745v22.5Z"/>
  </g>
</svg>
