<svg xmlns="http://www.w3.org/2000/svg" xmlns:xlink="http://www.w3.org/1999/xlink" viewBox="0 0 617 46">
  <defs>
    <style>
      .cls-1 {
        font-size: 41.3px;
        font-family: ArialMT, Arial;
        letter-spacing: -0.018em;
      }

      .cls-2 {
        fill: url(#linear-gradient);
      }
    </style>
    <linearGradient id="linear-gradient" x1="-0.25" y1="0.238" x2="1.25" y2="0.762" gradientUnits="objectBoundingBox">
      <stop offset="0" stop-color="#002d68"/>
      <stop offset="1" stop-color="#16baf1"/>
    </linearGradient>
  </defs>
  <g id="Entrer_les_informations_demandées" data-name="Entrer les informations demandées" transform="translate(-44 -363.127)">
    <text id="Entrer_les_informations_demandées-2" data-name="Entrer les informations demandées" class="cls-1" transform="translate(44 400.127)"><tspan x="0" y="0">Entrer les informations demandées</tspan></text>
    <path id="Gradient_Overlay" data-name="Gradient Overlay" class="cls-2" d="M47.267,400.127V370.564H68.643v3.489H51.179v9.054H67.534v3.469H51.179v10.063H69.328v3.489Zm26.259,0V378.711h3.267v3.045a7.7,7.7,0,0,1,6.816-3.529,8.942,8.942,0,0,1,3.559.7,5.6,5.6,0,0,1,2.43,1.825,7.005,7.005,0,0,1,1.129,2.682,20.786,20.786,0,0,1,.2,3.529v13.168H87.3V387.1a9.779,9.779,0,0,0-.423-3.317,3.489,3.489,0,0,0-1.5-1.754,4.779,4.779,0,0,0-2.531-.655,5.881,5.881,0,0,0-4,1.472q-1.684,1.472-1.684,5.586v11.7Zm30.151-3.247.524,3.206a13.463,13.463,0,0,1-2.743.323,6.209,6.209,0,0,1-3.065-.625,3.5,3.5,0,0,1-1.533-1.644,13,13,0,0,1-.444-4.285V381.534H93.755v-2.823h2.662v-5.3l3.61-2.178v7.482h3.65v2.823h-3.65v12.523a6.326,6.326,0,0,0,.192,2,1.512,1.512,0,0,0,.625.706,2.415,2.415,0,0,0,1.24.262A11.807,11.807,0,0,0,103.676,396.88Zm2.765,3.247V378.711h3.267v3.247a8.86,8.86,0,0,1,2.309-3,4.031,4.031,0,0,1,2.329-.726,7.08,7.08,0,0,1,3.731,1.17l-1.25,3.368a5.194,5.194,0,0,0-2.662-.786,3.457,3.457,0,0,0-2.138.716,3.878,3.878,0,0,0-1.351,1.986,14.139,14.139,0,0,0-.6,4.235v11.212Zm27.711-6.9,3.751.464a9.151,9.151,0,0,1-3.287,5.1,11.136,11.136,0,0,1-13.582-1.079q-2.753-2.894-2.753-8.117,0-5.4,2.783-8.389a9.42,9.42,0,0,1,7.219-2.985,9.156,9.156,0,0,1,7.018,2.924q2.722,2.924,2.722,8.228,0,.323-.02.968H122.032a8.23,8.23,0,0,0,2,5.4,5.942,5.942,0,0,0,4.477,1.875,5.554,5.554,0,0,0,3.408-1.049A6.961,6.961,0,0,0,134.152,393.23Zm-11.918-5.868h11.958a7.255,7.255,0,0,0-1.371-4.053,5.563,5.563,0,0,0-4.5-2.1,5.766,5.766,0,0,0-4.2,1.674A6.624,6.624,0,0,0,122.234,387.362Zm19.443,12.765V378.711h3.267v3.247a8.86,8.86,0,0,1,2.309-3,4.031,4.031,0,0,1,2.329-.726,7.08,7.08,0,0,1,3.731,1.17l-1.25,3.368a5.193,5.193,0,0,0-2.662-.786,3.457,3.457,0,0,0-2.138.716,3.878,3.878,0,0,0-1.351,1.986,14.139,14.139,0,0,0-.6,4.235v11.212Zm23.7,0V370.564h3.63v29.563Zm23.173-6.9,3.751.464a9.152,9.152,0,0,1-3.287,5.1,11.136,11.136,0,0,1-13.582-1.079q-2.753-2.894-2.753-8.117,0-5.4,2.783-8.389a9.42,9.42,0,0,1,7.219-2.985,9.156,9.156,0,0,1,7.018,2.924q2.722,2.924,2.722,8.228,0,.323-.02.968H176.431a8.23,8.23,0,0,0,2,5.4,5.942,5.942,0,0,0,4.477,1.875,5.554,5.554,0,0,0,3.408-1.049A6.961,6.961,0,0,0,188.55,393.23Zm-11.918-5.868h11.958a7.255,7.255,0,0,0-1.371-4.053,5.563,5.563,0,0,0-4.5-2.1,5.766,5.766,0,0,0-4.2,1.674A6.624,6.624,0,0,0,176.632,387.362Zm18.031,6.372,3.59-.565a5.017,5.017,0,0,0,1.684,3.307,5.869,5.869,0,0,0,3.862,1.149,5.674,5.674,0,0,0,3.711-1.018,3.046,3.046,0,0,0,1.21-2.39,2.2,2.2,0,0,0-1.069-1.936,15.745,15.745,0,0,0-3.711-1.23,33.856,33.856,0,0,1-5.536-1.744,5.283,5.283,0,0,1-3.136-4.91,5.516,5.516,0,0,1,.655-2.652,5.877,5.877,0,0,1,1.785-2.027,7.482,7.482,0,0,1,2.309-1.059,10.98,10.98,0,0,1,3.136-.434,12.4,12.4,0,0,1,4.426.726,6.02,6.02,0,0,1,2.813,1.966,7.683,7.683,0,0,1,1.25,3.317l-3.549.484a3.882,3.882,0,0,0-1.4-2.581,5.126,5.126,0,0,0-3.277-.928,5.935,5.935,0,0,0-3.569.827,2.407,2.407,0,0,0-1.069,1.936,2,2,0,0,0,.444,1.27,3.2,3.2,0,0,0,1.391.968q.544.2,3.206.928a44.637,44.637,0,0,1,5.374,1.684,5.453,5.453,0,0,1,2.39,1.906,5.319,5.319,0,0,1,.867,3.106,6.094,6.094,0,0,1-1.059,3.418,6.843,6.843,0,0,1-3.055,2.48,11.121,11.121,0,0,1-4.517.877q-4.174,0-6.362-1.734A8.065,8.065,0,0,1,194.663,393.734Zm32.109-19v-4.174h3.63v4.174Zm0,25.389V378.711h3.63v21.416Zm8.412,0V378.711h3.267v3.045a7.7,7.7,0,0,1,6.816-3.529,8.942,8.942,0,0,1,3.559.7,5.6,5.6,0,0,1,2.43,1.825,7.005,7.005,0,0,1,1.129,2.682,20.786,20.786,0,0,1,.2,3.529v13.168h-3.63V387.1a9.779,9.779,0,0,0-.423-3.317,3.489,3.489,0,0,0-1.5-1.754,4.779,4.779,0,0,0-2.531-.655,5.881,5.881,0,0,0-4,1.472q-1.684,1.472-1.684,5.586v11.7Zm23.093,0V381.534h-3.206v-2.823h3.206v-2.279a9.977,9.977,0,0,1,.383-3.206,4.641,4.641,0,0,1,1.845-2.289,6.65,6.65,0,0,1,3.7-.877,17.766,17.766,0,0,1,3.388.363l-.544,3.166a12.182,12.182,0,0,0-2.138-.2,3.181,3.181,0,0,0-2.339.706,3.826,3.826,0,0,0-.686,2.642v1.976h4.174v2.823h-4.174v18.593Zm8.513-10.708q0-5.949,3.307-8.812a9.965,9.965,0,0,1,6.735-2.38,9.609,9.609,0,0,1,7.219,2.894q2.8,2.894,2.8,8a14.168,14.168,0,0,1-1.24,6.5,8.779,8.779,0,0,1-3.61,3.68,10.509,10.509,0,0,1-5.173,1.311,9.627,9.627,0,0,1-7.27-2.884Q266.79,394.844,266.79,389.419Zm3.731,0q0,4.114,1.795,6.161a5.976,5.976,0,0,0,9.014-.01q1.795-2.057,1.795-6.272,0-3.973-1.8-6.02a5.984,5.984,0,0,0-9-.01Q270.521,385.305,270.521,389.419Zm19.806,10.708V378.711h3.267v3.247a8.86,8.86,0,0,1,2.309-3,4.031,4.031,0,0,1,2.329-.726,7.08,7.08,0,0,1,3.731,1.17l-1.25,3.368a5.194,5.194,0,0,0-2.662-.786,3.457,3.457,0,0,0-2.138.716,3.878,3.878,0,0,0-1.351,1.986,14.14,14.14,0,0,0-.6,4.235v11.212Zm13.05,0V378.711h3.247v3a7.633,7.633,0,0,1,2.682-2.531,7.535,7.535,0,0,1,3.811-.958,7.045,7.045,0,0,1,3.9.988,5.288,5.288,0,0,1,2.148,2.763,7.689,7.689,0,0,1,6.614-3.751,6.519,6.519,0,0,1,4.9,1.765q1.714,1.764,1.714,5.435v14.7h-3.61V386.636a9.933,9.933,0,0,0-.353-3.136,3.037,3.037,0,0,0-1.281-1.543,4,4,0,0,0-2.178-.585,5.069,5.069,0,0,0-3.751,1.5q-1.492,1.5-1.492,4.81v12.442H316.1V386.213a6.122,6.122,0,0,0-.887-3.63,3.36,3.36,0,0,0-2.9-1.21,5.275,5.275,0,0,0-2.833.807,4.575,4.575,0,0,0-1.885,2.359,13.281,13.281,0,0,0-.585,4.477v11.111Zm47.634-2.642a13.516,13.516,0,0,1-3.882,2.42,11.217,11.217,0,0,1-4,.706,7.786,7.786,0,0,1-5.425-1.724,5.691,5.691,0,0,1-1.9-4.406,5.86,5.86,0,0,1,.716-2.874,5.926,5.926,0,0,1,1.875-2.087,8.818,8.818,0,0,1,2.611-1.19,25.935,25.935,0,0,1,3.227-.544,33.178,33.178,0,0,0,6.473-1.25q.02-.746.02-.948a4.007,4.007,0,0,0-1.028-3.126,6.075,6.075,0,0,0-4.134-1.23,6.41,6.41,0,0,0-3.781.9,5.483,5.483,0,0,0-1.8,3.176l-3.549-.484a8.794,8.794,0,0,1,1.593-3.68,6.983,6.983,0,0,1,3.206-2.158,14.3,14.3,0,0,1,4.86-.756,12.863,12.863,0,0,1,4.457.645,5.872,5.872,0,0,1,2.521,1.623,5.709,5.709,0,0,1,1.129,2.47,20.437,20.437,0,0,1,.181,3.348v4.84a51.371,51.371,0,0,0,.232,6.4,8.079,8.079,0,0,0,.918,2.571h-3.791A7.7,7.7,0,0,1,351.011,397.485Zm-.3-8.107a26.632,26.632,0,0,1-5.929,1.371,13.714,13.714,0,0,0-3.166.726,3.156,3.156,0,0,0-1.432,1.18,3.208,3.208,0,0,0,.595,4.144,4.729,4.729,0,0,0,3.216.968,7.486,7.486,0,0,0,3.731-.918,5.65,5.65,0,0,0,2.4-2.511,8.769,8.769,0,0,0,.585-3.63Zm16.478,7.5.524,3.206a13.463,13.463,0,0,1-2.743.323,6.209,6.209,0,0,1-3.065-.625,3.5,3.5,0,0,1-1.533-1.644,13,13,0,0,1-.444-4.285V381.534h-2.662v-2.823h2.662v-5.3l3.61-2.178v7.482h3.65v2.823h-3.65v12.523a6.326,6.326,0,0,0,.192,2,1.512,1.512,0,0,0,.625.706,2.415,2.415,0,0,0,1.24.262A11.807,11.807,0,0,0,367.186,396.88Zm2.826-22.142v-4.174h3.63v4.174Zm0,25.389V378.711h3.63v21.416Zm7.061-10.708q0-5.949,3.307-8.812a9.965,9.965,0,0,1,6.735-2.38,9.608,9.608,0,0,1,7.219,2.894q2.8,2.894,2.8,8a14.168,14.168,0,0,1-1.24,6.5,8.779,8.779,0,0,1-3.61,3.68,10.509,10.509,0,0,1-5.173,1.311,9.627,9.627,0,0,1-7.27-2.884Q377.073,394.844,377.073,389.419Zm3.731,0q0,4.114,1.795,6.161a5.976,5.976,0,0,0,9.014-.01q1.795-2.057,1.795-6.272,0-3.973-1.8-6.02a5.984,5.984,0,0,0-9-.01Q380.8,385.305,380.8,389.419Zm19.846,10.708V378.711h3.267v3.045a7.7,7.7,0,0,1,6.816-3.529,8.942,8.942,0,0,1,3.559.7,5.6,5.6,0,0,1,2.43,1.825,7.005,7.005,0,0,1,1.129,2.682,20.786,20.786,0,0,1,.2,3.529v13.168h-3.63V387.1a9.779,9.779,0,0,0-.423-3.317,3.489,3.489,0,0,0-1.5-1.754,4.779,4.779,0,0,0-2.531-.655,5.881,5.881,0,0,0-4,1.472q-1.684,1.472-1.684,5.586v11.7Zm20.774-6.393,3.59-.565a5.017,5.017,0,0,0,1.684,3.307,5.869,5.869,0,0,0,3.862,1.149,5.673,5.673,0,0,0,3.711-1.018,3.046,3.046,0,0,0,1.21-2.39,2.2,2.2,0,0,0-1.069-1.936,15.745,15.745,0,0,0-3.711-1.23,33.856,33.856,0,0,1-5.536-1.744,5.283,5.283,0,0,1-3.136-4.91,5.516,5.516,0,0,1,.655-2.652,5.877,5.877,0,0,1,1.785-2.027,7.482,7.482,0,0,1,2.309-1.059,10.98,10.98,0,0,1,3.136-.434,12.4,12.4,0,0,1,4.426.726,6.021,6.021,0,0,1,2.813,1.966,7.683,7.683,0,0,1,1.25,3.317l-3.549.484a3.882,3.882,0,0,0-1.4-2.581,5.126,5.126,0,0,0-3.277-.928,5.935,5.935,0,0,0-3.569.827,2.407,2.407,0,0,0-1.069,1.936,2,2,0,0,0,.444,1.27,3.2,3.2,0,0,0,1.391.968q.544.2,3.206.928a44.638,44.638,0,0,1,5.374,1.684,5.453,5.453,0,0,1,2.39,1.906,5.319,5.319,0,0,1,.867,3.106,6.094,6.094,0,0,1-1.059,3.418,6.843,6.843,0,0,1-3.055,2.48,11.121,11.121,0,0,1-4.517.877q-4.174,0-6.362-1.734A8.065,8.065,0,0,1,421.423,393.734Zm45.984,6.393v-2.7a6.661,6.661,0,0,1-5.989,3.186,8.4,8.4,0,0,1-4.709-1.412,9.283,9.283,0,0,1-3.327-3.942,13.626,13.626,0,0,1-1.18-5.818,15.227,15.227,0,0,1,1.069-5.818,8.43,8.43,0,0,1,3.206-4,8.572,8.572,0,0,1,4.779-1.391,7.142,7.142,0,0,1,5.909,2.944V370.564h3.61v29.563Zm-11.474-10.688q0,4.114,1.734,6.151a5.229,5.229,0,0,0,4.094,2.037,5.134,5.134,0,0,0,4.043-1.946q1.664-1.946,1.664-5.939,0-4.4-1.694-6.453a5.21,5.21,0,0,0-4.174-2.057,5.029,5.029,0,0,0-4.043,1.976Q455.932,385.184,455.932,389.439ZM490.4,393.23l3.751.464a9.151,9.151,0,0,1-3.287,5.1,11.136,11.136,0,0,1-13.582-1.079q-2.753-2.894-2.753-8.117,0-5.4,2.783-8.389a9.42,9.42,0,0,1,7.219-2.985,9.156,9.156,0,0,1,7.018,2.924q2.722,2.924,2.722,8.228,0,.323-.02.968H478.279a8.23,8.23,0,0,0,2,5.4,5.942,5.942,0,0,0,4.477,1.875,5.554,5.554,0,0,0,3.408-1.049A6.961,6.961,0,0,0,490.4,393.23Zm-11.918-5.868h11.958a7.255,7.255,0,0,0-1.371-4.053,5.563,5.563,0,0,0-4.5-2.1,5.766,5.766,0,0,0-4.2,1.674A6.624,6.624,0,0,0,478.48,387.362Zm19.483,12.765V378.711h3.247v3a7.633,7.633,0,0,1,2.682-2.531,7.535,7.535,0,0,1,3.811-.958,7.045,7.045,0,0,1,3.9.988,5.288,5.288,0,0,1,2.148,2.763,7.689,7.689,0,0,1,6.614-3.751,6.519,6.519,0,0,1,4.9,1.765q1.714,1.764,1.714,5.435v14.7h-3.61V386.636a9.934,9.934,0,0,0-.353-3.136,3.037,3.037,0,0,0-1.281-1.543,4,4,0,0,0-2.178-.585,5.069,5.069,0,0,0-3.751,1.5q-1.492,1.5-1.492,4.81v12.442h-3.63V386.213a6.122,6.122,0,0,0-.887-3.63,3.36,3.36,0,0,0-2.9-1.21,5.275,5.275,0,0,0-2.833.807,4.575,4.575,0,0,0-1.885,2.359,13.281,13.281,0,0,0-.585,4.477v11.111Zm47.634-2.642a13.517,13.517,0,0,1-3.882,2.42,11.217,11.217,0,0,1-4,.706,7.786,7.786,0,0,1-5.425-1.724,5.691,5.691,0,0,1-1.9-4.406,5.86,5.86,0,0,1,.716-2.874,5.926,5.926,0,0,1,1.875-2.087,8.82,8.82,0,0,1,2.611-1.19,25.936,25.936,0,0,1,3.227-.544,33.179,33.179,0,0,0,6.473-1.25q.02-.746.02-.948a4.008,4.008,0,0,0-1.028-3.126,6.075,6.075,0,0,0-4.134-1.23,6.41,6.41,0,0,0-3.781.9,5.483,5.483,0,0,0-1.8,3.176l-3.549-.484a8.8,8.8,0,0,1,1.593-3.68,6.983,6.983,0,0,1,3.206-2.158,14.3,14.3,0,0,1,4.86-.756,12.863,12.863,0,0,1,4.457.645,5.872,5.872,0,0,1,2.521,1.623,5.709,5.709,0,0,1,1.129,2.47,20.44,20.44,0,0,1,.182,3.348v4.84a51.373,51.373,0,0,0,.232,6.4,8.079,8.079,0,0,0,.918,2.571h-3.791A7.7,7.7,0,0,1,545.6,397.485Zm-.3-8.107a26.633,26.633,0,0,1-5.929,1.371,13.715,13.715,0,0,0-3.166.726,3.156,3.156,0,0,0-1.432,1.18,3.208,3.208,0,0,0,.595,4.144,4.729,4.729,0,0,0,3.216.968,7.486,7.486,0,0,0,3.731-.918,5.65,5.65,0,0,0,2.4-2.511,8.768,8.768,0,0,0,.585-3.63Zm8.553,10.748V378.711h3.267v3.045a7.7,7.7,0,0,1,6.816-3.529,8.942,8.942,0,0,1,3.559.7,5.6,5.6,0,0,1,2.43,1.825,7.006,7.006,0,0,1,1.129,2.682,20.782,20.782,0,0,1,.2,3.529v13.168h-3.63V387.1a9.78,9.78,0,0,0-.423-3.317,3.489,3.489,0,0,0-1.5-1.754,4.779,4.779,0,0,0-2.531-.655,5.881,5.881,0,0,0-4,1.472q-1.684,1.472-1.684,5.586v11.7Zm36.12,0v-2.7a6.661,6.661,0,0,1-5.989,3.186,8.4,8.4,0,0,1-4.709-1.412,9.283,9.283,0,0,1-3.327-3.942,13.626,13.626,0,0,1-1.18-5.818,15.227,15.227,0,0,1,1.069-5.818,8.43,8.43,0,0,1,3.206-4,8.572,8.572,0,0,1,4.779-1.391,7.142,7.142,0,0,1,5.909,2.944V370.564h3.61v29.563Zm-11.474-10.688q0,4.114,1.734,6.151a5.229,5.229,0,0,0,4.094,2.037,5.133,5.133,0,0,0,4.043-1.946q1.664-1.946,1.664-5.939,0-4.4-1.694-6.453a5.21,5.21,0,0,0-4.174-2.057,5.029,5.029,0,0,0-4.043,1.976Q578.494,385.184,578.494,389.439Zm34.466,3.791,3.751.464a9.152,9.152,0,0,1-3.287,5.1,11.136,11.136,0,0,1-13.582-1.079q-2.753-2.894-2.753-8.117,0-5.4,2.783-8.389a9.42,9.42,0,0,1,7.219-2.985,9.156,9.156,0,0,1,7.018,2.924q2.722,2.924,2.722,8.228,0,.323-.02.968H600.84a8.229,8.229,0,0,0,2,5.4,5.942,5.942,0,0,0,4.477,1.875,5.554,5.554,0,0,0,3.408-1.049A6.961,6.961,0,0,0,612.96,393.23Zm-11.918-5.868H613a7.255,7.255,0,0,0-1.371-4.053,5.563,5.563,0,0,0-4.5-2.1,5.766,5.766,0,0,0-4.2,1.674A6.624,6.624,0,0,0,601.042,387.362Zm3.912-11.313,2.682-5.646H612.4l-4.436,5.646Zm30.231,17.181,3.751.464a9.152,9.152,0,0,1-3.287,5.1,11.136,11.136,0,0,1-13.582-1.079q-2.753-2.894-2.753-8.117,0-5.4,2.783-8.389a9.42,9.42,0,0,1,7.219-2.985,9.156,9.156,0,0,1,7.018,2.924q2.722,2.924,2.722,8.228,0,.323-.02.968H623.066a8.229,8.229,0,0,0,2,5.4,5.942,5.942,0,0,0,4.477,1.875,5.554,5.554,0,0,0,3.408-1.049A6.961,6.961,0,0,0,635.185,393.23Zm-11.918-5.868h11.958a7.255,7.255,0,0,0-1.371-4.053,5.563,5.563,0,0,0-4.5-2.1,5.766,5.766,0,0,0-4.2,1.674A6.624,6.624,0,0,0,623.267,387.362Zm18.031,6.372,3.59-.565a5.017,5.017,0,0,0,1.684,3.307,5.869,5.869,0,0,0,3.862,1.149,5.674,5.674,0,0,0,3.711-1.018,3.046,3.046,0,0,0,1.21-2.39,2.2,2.2,0,0,0-1.069-1.936,15.744,15.744,0,0,0-3.711-1.23,33.855,33.855,0,0,1-5.535-1.744,5.283,5.283,0,0,1-3.136-4.91,5.515,5.515,0,0,1,.655-2.652,5.877,5.877,0,0,1,1.785-2.027,7.482,7.482,0,0,1,2.309-1.059,10.98,10.98,0,0,1,3.136-.434,12.4,12.4,0,0,1,4.426.726,6.02,6.02,0,0,1,2.813,1.966,7.683,7.683,0,0,1,1.25,3.317l-3.549.484a3.882,3.882,0,0,0-1.4-2.581,5.126,5.126,0,0,0-3.277-.928,5.934,5.934,0,0,0-3.569.827,2.407,2.407,0,0,0-1.069,1.936,2,2,0,0,0,.444,1.27,3.2,3.2,0,0,0,1.391.968q.544.2,3.206.928a44.636,44.636,0,0,1,5.374,1.684,5.453,5.453,0,0,1,2.39,1.906,5.32,5.32,0,0,1,.867,3.106,6.094,6.094,0,0,1-1.059,3.418,6.843,6.843,0,0,1-3.055,2.48,11.121,11.121,0,0,1-4.517.877q-4.174,0-6.362-1.734A8.065,8.065,0,0,1,641.3,393.734Z"/>
  </g>
</svg>
