<svg xmlns="http://www.w3.org/2000/svg" xmlns:xlink="http://www.w3.org/1999/xlink" viewBox="0 0 613 46">
  <defs>
    <style>
      .cls-1 {
        font-size: 40.987px;
        font-family: ArialMT, Arial;
        letter-spacing: -0.018em;
      }

      .cls-2 {
        fill: url(#linear-gradient);
      }
    </style>
    <linearGradient id="linear-gradient" x1="-0.25" y1="0.238" x2="1.25" y2="0.762" gradientUnits="objectBoundingBox">
      <stop offset="0" stop-color="#002d68"/>
      <stop offset="1" stop-color="#16baf1"/>
    </linearGradient>
  </defs>
  <g id="Entrer_les_informations_demandées" data-name="Entrer les informations demandées" transform="translate(-44 -364.86)">
    <text id="Entrer_les_informations_demandées-2" data-name="Entrer les informations demandées" class="cls-1" transform="translate(44 401.86)"><tspan x="0" y="0">Entrer les informations demandées</tspan></text>
    <path id="Gradient_Overlay" data-name="Gradient Overlay" class="cls-2" d="M47.242,401.86V372.521H68.456v3.462H51.125v8.986H67.355v3.442H51.125V398.4H69.136v3.462Zm26.06,0V380.606h3.242v3.022a7.64,7.64,0,0,1,6.764-3.5,8.873,8.873,0,0,1,3.532.69,5.556,5.556,0,0,1,2.412,1.811,6.952,6.952,0,0,1,1.121,2.662,20.626,20.626,0,0,1,.2,3.5V401.86h-3.6V388.932a9.7,9.7,0,0,0-.42-3.292,3.463,3.463,0,0,0-1.491-1.741,4.742,4.742,0,0,0-2.512-.65,5.836,5.836,0,0,0-3.973,1.461Q76.9,386.17,76.9,390.252V401.86Zm29.922-3.222.52,3.182a13.362,13.362,0,0,1-2.722.32,6.162,6.162,0,0,1-3.042-.62,3.474,3.474,0,0,1-1.521-1.631,12.9,12.9,0,0,1-.44-4.253V383.408H93.377v-2.8h2.642v-5.263l3.582-2.161v7.425h3.622v2.8H99.6v12.428a6.278,6.278,0,0,0,.19,1.981,1.5,1.5,0,0,0,.62.7,2.4,2.4,0,0,0,1.231.26A11.72,11.72,0,0,0,103.224,398.638Zm2.744,3.222V380.606h3.242v3.222a8.793,8.793,0,0,1,2.291-2.982,4,4,0,0,1,2.311-.72,7.027,7.027,0,0,1,3.7,1.161l-1.241,3.342a5.154,5.154,0,0,0-2.642-.781,3.431,3.431,0,0,0-2.121.71,3.849,3.849,0,0,0-1.341,1.971,14.032,14.032,0,0,0-.6,4.2V401.86Zm27.5-6.844,3.722.46a9.082,9.082,0,0,1-3.262,5.063,11.051,11.051,0,0,1-13.479-1.071q-2.732-2.872-2.732-8.055,0-5.363,2.762-8.325a9.349,9.349,0,0,1,7.165-2.962,9.086,9.086,0,0,1,6.965,2.9q2.7,2.9,2.7,8.165,0,.32-.02.961h-15.85a8.167,8.167,0,0,0,1.981,5.363,5.9,5.9,0,0,0,4.443,1.861,5.512,5.512,0,0,0,3.382-1.041A6.908,6.908,0,0,0,133.469,395.016Zm-11.828-5.824h11.868a7.2,7.2,0,0,0-1.361-4.023,5.521,5.521,0,0,0-4.463-2.081,5.723,5.723,0,0,0-4.173,1.661A6.574,6.574,0,0,0,121.641,389.192Zm19.3,12.668V380.606h3.242v3.222a8.793,8.793,0,0,1,2.291-2.982,4,4,0,0,1,2.311-.72,7.027,7.027,0,0,1,3.7,1.161l-1.241,3.342a5.154,5.154,0,0,0-2.642-.781,3.431,3.431,0,0,0-2.121.71,3.849,3.849,0,0,0-1.341,1.971,14.032,14.032,0,0,0-.6,4.2V401.86Zm23.521,0V372.521h3.6V401.86Zm23-6.844,3.722.46a9.082,9.082,0,0,1-3.262,5.063,11.051,11.051,0,0,1-13.479-1.071q-2.732-2.872-2.732-8.055,0-5.363,2.762-8.325a9.349,9.349,0,0,1,7.165-2.962,9.086,9.086,0,0,1,6.965,2.9q2.7,2.9,2.7,8.165,0,.32-.02.961h-15.85a8.167,8.167,0,0,0,1.981,5.363,5.9,5.9,0,0,0,4.443,1.861,5.512,5.512,0,0,0,3.382-1.041A6.908,6.908,0,0,0,187.455,395.016Zm-11.828-5.824h11.868a7.2,7.2,0,0,0-1.361-4.023,5.521,5.521,0,0,0-4.463-2.081,5.723,5.723,0,0,0-4.173,1.661A6.574,6.574,0,0,0,175.627,389.192Zm17.894,6.324,3.562-.56a4.979,4.979,0,0,0,1.671,3.282,5.824,5.824,0,0,0,3.832,1.141,5.63,5.63,0,0,0,3.682-1.011,3.022,3.022,0,0,0,1.2-2.372,2.188,2.188,0,0,0-1.061-1.921,15.625,15.625,0,0,0-3.682-1.221,33.6,33.6,0,0,1-5.494-1.731,5.243,5.243,0,0,1-3.112-4.873,5.474,5.474,0,0,1,.65-2.632,5.832,5.832,0,0,1,1.771-2.011,7.426,7.426,0,0,1,2.291-1.051,10.9,10.9,0,0,1,3.112-.43,12.3,12.3,0,0,1,4.393.72,5.975,5.975,0,0,1,2.792,1.951,7.625,7.625,0,0,1,1.241,3.292l-3.522.48a3.853,3.853,0,0,0-1.391-2.562,5.088,5.088,0,0,0-3.252-.921,5.89,5.89,0,0,0-3.542.821,2.389,2.389,0,0,0-1.061,1.921,1.988,1.988,0,0,0,.44,1.261,3.177,3.177,0,0,0,1.381.961q.54.2,3.182.921a44.3,44.3,0,0,1,5.333,1.671,5.411,5.411,0,0,1,2.372,1.891,5.279,5.279,0,0,1,.861,3.082,6.048,6.048,0,0,1-1.051,3.392,6.791,6.791,0,0,1-3.032,2.462,11.036,11.036,0,0,1-4.483.871q-4.143,0-6.314-1.721A8,8,0,0,1,193.521,395.516Zm31.866-18.852v-4.143h3.6v4.143Zm0,25.2V380.606h3.6V401.86Zm8.348,0V380.606h3.242v3.022a7.64,7.64,0,0,1,6.764-3.5,8.873,8.873,0,0,1,3.532.69,5.556,5.556,0,0,1,2.412,1.811,6.952,6.952,0,0,1,1.121,2.662,20.626,20.626,0,0,1,.2,3.5V401.86h-3.6V388.932a9.7,9.7,0,0,0-.42-3.292,3.463,3.463,0,0,0-1.491-1.741,4.742,4.742,0,0,0-2.512-.65,5.836,5.836,0,0,0-3.973,1.461q-1.671,1.461-1.671,5.544V401.86Zm22.918,0V383.408h-3.182v-2.8h3.182v-2.261a9.9,9.9,0,0,1,.38-3.182,4.606,4.606,0,0,1,1.831-2.271,6.6,6.6,0,0,1,3.672-.871,17.633,17.633,0,0,1,3.362.36l-.54,3.142a12.088,12.088,0,0,0-2.121-.2,3.157,3.157,0,0,0-2.322.7,3.8,3.8,0,0,0-.68,2.622v1.961h4.143v2.8h-4.143V401.86Zm8.448-10.627q0-5.9,3.282-8.746a9.89,9.89,0,0,1,6.684-2.362A9.536,9.536,0,0,1,282.233,383q2.782,2.872,2.782,7.935a14.06,14.06,0,0,1-1.231,6.454,8.713,8.713,0,0,1-3.582,3.652,10.43,10.43,0,0,1-5.133,1.3,9.554,9.554,0,0,1-7.215-2.862Q265.1,396.617,265.1,391.233Zm3.7,0q0,4.083,1.781,6.114a5.931,5.931,0,0,0,8.946-.01q1.781-2.041,1.781-6.224,0-3.943-1.791-5.974a5.939,5.939,0,0,0-8.936-.01Q268.8,387.15,268.8,391.233Zm19.656,10.627V380.606H291.7v3.222a8.793,8.793,0,0,1,2.292-2.982,4,4,0,0,1,2.312-.72,7.027,7.027,0,0,1,3.7,1.161l-1.241,3.342a5.154,5.154,0,0,0-2.642-.781,3.431,3.431,0,0,0-2.121.71,3.849,3.849,0,0,0-1.341,1.971,14.033,14.033,0,0,0-.6,4.2V401.86Zm12.951,0V380.606h3.222v2.982a7.575,7.575,0,0,1,2.662-2.512,7.478,7.478,0,0,1,3.782-.951,6.992,6.992,0,0,1,3.873.981,5.248,5.248,0,0,1,2.131,2.742,7.631,7.631,0,0,1,6.564-3.722,6.47,6.47,0,0,1,4.863,1.751q1.7,1.751,1.7,5.393V401.86h-3.582V388.471a9.858,9.858,0,0,0-.35-3.112,3.014,3.014,0,0,0-1.271-1.531,3.967,3.967,0,0,0-2.161-.58,5.03,5.03,0,0,0-3.722,1.491q-1.481,1.491-1.481,4.773V401.86h-3.6V388.051a6.076,6.076,0,0,0-.881-3.6,3.335,3.335,0,0,0-2.882-1.2,5.235,5.235,0,0,0-2.812.8,4.541,4.541,0,0,0-1.871,2.342,13.18,13.18,0,0,0-.58,4.443V401.86Zm47.273-2.622a13.413,13.413,0,0,1-3.852,2.4,11.132,11.132,0,0,1-3.973.7,7.727,7.727,0,0,1-5.383-1.711,5.648,5.648,0,0,1-1.881-4.373,5.815,5.815,0,0,1,.71-2.852,5.881,5.881,0,0,1,1.861-2.071,8.75,8.75,0,0,1,2.592-1.181,25.741,25.741,0,0,1,3.2-.54,32.929,32.929,0,0,0,6.424-1.241q.02-.74.02-.941a3.977,3.977,0,0,0-1.021-3.1,6.029,6.029,0,0,0-4.1-1.221,6.362,6.362,0,0,0-3.752.891,5.442,5.442,0,0,0-1.791,3.152l-3.522-.48a8.727,8.727,0,0,1,1.581-3.652,6.93,6.93,0,0,1,3.182-2.141,14.193,14.193,0,0,1,4.823-.75,12.766,12.766,0,0,1,4.423.64,5.827,5.827,0,0,1,2.5,1.611,5.666,5.666,0,0,1,1.121,2.452,20.281,20.281,0,0,1,.18,3.322v4.8a50.986,50.986,0,0,0,.23,6.354,8.017,8.017,0,0,0,.911,2.552H349.4A7.639,7.639,0,0,1,348.684,399.238Zm-.3-8.045a26.43,26.43,0,0,1-5.884,1.361,13.609,13.609,0,0,0-3.142.72,3.132,3.132,0,0,0-1.421,1.171,3.184,3.184,0,0,0,.59,4.113,4.693,4.693,0,0,0,3.192.961,7.429,7.429,0,0,0,3.7-.911,5.607,5.607,0,0,0,2.382-2.492,8.7,8.7,0,0,0,.58-3.6Zm16.353,7.445.52,3.182a13.363,13.363,0,0,1-2.722.32,6.162,6.162,0,0,1-3.042-.62,3.474,3.474,0,0,1-1.521-1.631,12.9,12.9,0,0,1-.44-4.253V383.408h-2.642v-2.8h2.642v-5.263l3.582-2.161v7.425h3.622v2.8h-3.622v12.428a6.278,6.278,0,0,0,.19,1.981,1.5,1.5,0,0,0,.62.7,2.4,2.4,0,0,0,1.231.26A11.72,11.72,0,0,0,364.737,398.638Zm2.8-21.974v-4.143h3.6v4.143Zm0,25.2V380.606h3.6V401.86Zm7.007-10.627q0-5.9,3.282-8.746a9.89,9.89,0,0,1,6.684-2.362A9.536,9.536,0,0,1,391.68,383q2.782,2.872,2.782,7.935a14.06,14.06,0,0,1-1.231,6.454,8.713,8.713,0,0,1-3.582,3.652,10.43,10.43,0,0,1-5.133,1.3,9.554,9.554,0,0,1-7.215-2.862Q374.549,396.617,374.549,391.233Zm3.7,0q0,4.083,1.781,6.114a5.931,5.931,0,0,0,8.946-.01q1.781-2.041,1.781-6.224,0-3.943-1.791-5.974a5.939,5.939,0,0,0-8.936-.01Q378.251,387.15,378.251,391.233Zm19.7,10.627V380.606h3.242v3.022a7.64,7.64,0,0,1,6.764-3.5,8.873,8.873,0,0,1,3.532.69,5.556,5.556,0,0,1,2.412,1.811,6.952,6.952,0,0,1,1.121,2.662,20.626,20.626,0,0,1,.2,3.5V401.86h-3.6V388.932a9.7,9.7,0,0,0-.42-3.292A3.463,3.463,0,0,0,409.7,383.9a4.742,4.742,0,0,0-2.512-.65,5.836,5.836,0,0,0-3.973,1.461q-1.671,1.461-1.671,5.544V401.86Zm20.616-6.344,3.562-.56a4.979,4.979,0,0,0,1.671,3.282,5.824,5.824,0,0,0,3.832,1.141,5.63,5.63,0,0,0,3.682-1.011,3.022,3.022,0,0,0,1.2-2.372,2.188,2.188,0,0,0-1.061-1.921,15.624,15.624,0,0,0-3.682-1.221,33.6,33.6,0,0,1-5.494-1.731,5.243,5.243,0,0,1-3.112-4.873,5.474,5.474,0,0,1,.65-2.632,5.832,5.832,0,0,1,1.771-2.011,7.426,7.426,0,0,1,2.292-1.051,10.9,10.9,0,0,1,3.112-.43,12.3,12.3,0,0,1,4.393.72,5.975,5.975,0,0,1,2.792,1.951,7.625,7.625,0,0,1,1.241,3.292l-3.522.48a3.853,3.853,0,0,0-1.391-2.562,5.088,5.088,0,0,0-3.252-.921,5.89,5.89,0,0,0-3.542.821,2.389,2.389,0,0,0-1.061,1.921,1.988,1.988,0,0,0,.44,1.261,3.177,3.177,0,0,0,1.381.961q.54.2,3.182.921a44.3,44.3,0,0,1,5.333,1.671,5.411,5.411,0,0,1,2.372,1.891,5.279,5.279,0,0,1,.861,3.082,6.048,6.048,0,0,1-1.051,3.392,6.791,6.791,0,0,1-3.032,2.462,11.036,11.036,0,0,1-4.483.871q-4.143,0-6.314-1.721A8,8,0,0,1,418.563,395.516ZM464.2,401.86v-2.682a6.611,6.611,0,0,1-5.944,3.162,8.335,8.335,0,0,1-4.673-1.4,9.213,9.213,0,0,1-3.3-3.913,13.523,13.523,0,0,1-1.171-5.774,15.112,15.112,0,0,1,1.061-5.774,8.366,8.366,0,0,1,3.182-3.973,8.507,8.507,0,0,1,4.743-1.381,7.088,7.088,0,0,1,5.864,2.922V372.521h3.582V401.86Zm-11.387-10.607q0,4.083,1.721,6.1a5.19,5.19,0,0,0,4.063,2.021,5.1,5.1,0,0,0,4.013-1.931q1.651-1.931,1.651-5.894,0-4.363-1.681-6.4a5.171,5.171,0,0,0-4.143-2.041,4.991,4.991,0,0,0-4.013,1.961Q452.811,387.03,452.811,391.253Zm34.2,3.762,3.722.46a9.082,9.082,0,0,1-3.262,5.063A11.051,11.051,0,0,1,474,399.468q-2.732-2.872-2.732-8.055,0-5.363,2.762-8.325a9.349,9.349,0,0,1,7.165-2.962,9.086,9.086,0,0,1,6.965,2.9q2.7,2.9,2.7,8.165,0,.32-.02.961h-15.85a8.167,8.167,0,0,0,1.981,5.363,5.9,5.9,0,0,0,4.443,1.861,5.512,5.512,0,0,0,3.382-1.041A6.908,6.908,0,0,0,487.015,395.016Zm-11.828-5.824h11.868a7.2,7.2,0,0,0-1.361-4.023,5.521,5.521,0,0,0-4.463-2.081,5.723,5.723,0,0,0-4.173,1.661A6.574,6.574,0,0,0,475.188,389.192Zm19.335,12.668V380.606h3.222v2.982a7.575,7.575,0,0,1,2.662-2.512,7.478,7.478,0,0,1,3.782-.951,6.992,6.992,0,0,1,3.873.981,5.248,5.248,0,0,1,2.131,2.742,7.631,7.631,0,0,1,6.564-3.722,6.47,6.47,0,0,1,4.863,1.751q1.7,1.751,1.7,5.393V401.86h-3.582V388.471a9.857,9.857,0,0,0-.35-3.112,3.015,3.015,0,0,0-1.271-1.531,3.967,3.967,0,0,0-2.161-.58,5.03,5.03,0,0,0-3.722,1.491q-1.481,1.491-1.481,4.773V401.86h-3.6V388.051a6.076,6.076,0,0,0-.881-3.6,3.335,3.335,0,0,0-2.882-1.2,5.235,5.235,0,0,0-2.812.8,4.541,4.541,0,0,0-1.871,2.342,13.18,13.18,0,0,0-.58,4.443V401.86Zm47.273-2.622a13.413,13.413,0,0,1-3.852,2.4,11.132,11.132,0,0,1-3.973.7,7.727,7.727,0,0,1-5.383-1.711,5.648,5.648,0,0,1-1.881-4.373,5.816,5.816,0,0,1,.71-2.852,5.881,5.881,0,0,1,1.861-2.071,8.75,8.75,0,0,1,2.592-1.181,25.742,25.742,0,0,1,3.2-.54,32.928,32.928,0,0,0,6.424-1.241q.02-.74.02-.941a3.977,3.977,0,0,0-1.021-3.1,6.029,6.029,0,0,0-4.1-1.221,6.361,6.361,0,0,0-3.752.891,5.441,5.441,0,0,0-1.791,3.152l-3.522-.48a8.727,8.727,0,0,1,1.581-3.652,6.93,6.93,0,0,1,3.182-2.141,14.193,14.193,0,0,1,4.823-.75,12.766,12.766,0,0,1,4.423.64,5.828,5.828,0,0,1,2.5,1.611,5.666,5.666,0,0,1,1.121,2.452,20.285,20.285,0,0,1,.18,3.322v4.8a50.977,50.977,0,0,0,.23,6.354,8.017,8.017,0,0,0,.911,2.552h-3.762A7.639,7.639,0,0,1,541.8,399.238Zm-.3-8.045a26.43,26.43,0,0,1-5.884,1.361,13.61,13.61,0,0,0-3.142.72,3.133,3.133,0,0,0-1.421,1.171,3.184,3.184,0,0,0,.59,4.113,4.693,4.693,0,0,0,3.192.961,7.429,7.429,0,0,0,3.7-.911,5.608,5.608,0,0,0,2.382-2.492,8.7,8.7,0,0,0,.58-3.6Zm8.488,10.667V380.606h3.242v3.022a7.64,7.64,0,0,1,6.764-3.5,8.873,8.873,0,0,1,3.532.69,5.556,5.556,0,0,1,2.412,1.811,6.952,6.952,0,0,1,1.121,2.662,20.626,20.626,0,0,1,.2,3.5V401.86h-3.6V388.932a9.7,9.7,0,0,0-.42-3.292,3.463,3.463,0,0,0-1.491-1.741,4.742,4.742,0,0,0-2.512-.65,5.836,5.836,0,0,0-3.973,1.461q-1.671,1.461-1.671,5.544V401.86Zm35.846,0v-2.682a6.611,6.611,0,0,1-5.944,3.162,8.335,8.335,0,0,1-4.673-1.4,9.212,9.212,0,0,1-3.3-3.913,13.522,13.522,0,0,1-1.171-5.774,15.111,15.111,0,0,1,1.061-5.774,8.366,8.366,0,0,1,3.182-3.973,8.507,8.507,0,0,1,4.743-1.381,7.088,7.088,0,0,1,5.864,2.922V372.521h3.582V401.86Zm-11.387-10.607q0,4.083,1.721,6.1a5.19,5.19,0,0,0,4.063,2.021,5.1,5.1,0,0,0,4.013-1.931q1.651-1.931,1.651-5.894,0-4.363-1.681-6.4a5.171,5.171,0,0,0-4.143-2.041,4.991,4.991,0,0,0-4.013,1.961Q574.443,387.03,574.443,391.253Zm34.2,3.762,3.722.46a9.082,9.082,0,0,1-3.262,5.063,11.051,11.051,0,0,1-13.479-1.071q-2.732-2.872-2.732-8.055,0-5.363,2.762-8.325a9.349,9.349,0,0,1,7.165-2.962,9.086,9.086,0,0,1,6.964,2.9q2.7,2.9,2.7,8.165,0,.32-.02.961H596.62a8.167,8.167,0,0,0,1.981,5.363,5.9,5.9,0,0,0,4.443,1.861,5.512,5.512,0,0,0,3.382-1.041A6.908,6.908,0,0,0,608.648,395.016Zm-11.828-5.824h11.868a7.2,7.2,0,0,0-1.361-4.023,5.521,5.521,0,0,0-4.463-2.081,5.723,5.723,0,0,0-4.173,1.661A6.574,6.574,0,0,0,596.82,389.192Zm3.883-11.227,2.662-5.6h4.723l-4.4,5.6Zm30,17.051,3.722.46a9.082,9.082,0,0,1-3.262,5.063,11.051,11.051,0,0,1-13.479-1.071q-2.732-2.872-2.732-8.055,0-5.363,2.762-8.325a9.349,9.349,0,0,1,7.165-2.962,9.086,9.086,0,0,1,6.964,2.9q2.7,2.9,2.7,8.165,0,.32-.02.961h-15.85a8.167,8.167,0,0,0,1.981,5.363,5.9,5.9,0,0,0,4.443,1.861,5.512,5.512,0,0,0,3.382-1.041A6.908,6.908,0,0,0,630.7,395.016Zm-11.828-5.824h11.868a7.2,7.2,0,0,0-1.361-4.023,5.521,5.521,0,0,0-4.463-2.081,5.723,5.723,0,0,0-4.173,1.661A6.574,6.574,0,0,0,618.877,389.192Zm17.894,6.324,3.562-.56A4.979,4.979,0,0,0,642,398.238a5.825,5.825,0,0,0,3.833,1.141,5.63,5.63,0,0,0,3.682-1.011,3.022,3.022,0,0,0,1.2-2.372,2.188,2.188,0,0,0-1.061-1.921,15.625,15.625,0,0,0-3.682-1.221,33.6,33.6,0,0,1-5.494-1.731,5.243,5.243,0,0,1-3.112-4.873,5.473,5.473,0,0,1,.65-2.632,5.832,5.832,0,0,1,1.771-2.011,7.426,7.426,0,0,1,2.292-1.051,10.9,10.9,0,0,1,3.112-.43,12.3,12.3,0,0,1,4.393.72,5.975,5.975,0,0,1,2.792,1.951,7.625,7.625,0,0,1,1.241,3.292l-3.522.48a3.853,3.853,0,0,0-1.391-2.562,5.087,5.087,0,0,0-3.252-.921,5.889,5.889,0,0,0-3.542.821,2.389,2.389,0,0,0-1.061,1.921,1.988,1.988,0,0,0,.44,1.261,3.177,3.177,0,0,0,1.381.961q.54.2,3.182.921a44.3,44.3,0,0,1,5.333,1.671,5.411,5.411,0,0,1,2.372,1.891,5.279,5.279,0,0,1,.861,3.082,6.048,6.048,0,0,1-1.051,3.392,6.791,6.791,0,0,1-3.032,2.462,11.036,11.036,0,0,1-4.483.871q-4.143,0-6.314-1.721A8,8,0,0,1,636.772,395.516Z"/>
  </g>
</svg>
