<svg xmlns="http://www.w3.org/2000/svg" xmlns:xlink="http://www.w3.org/1999/xlink" viewBox="0 0 606 46">
  <defs>
    <style>
      .cls-1 {
        font-size: 40.987px;
        font-family: ArialMT, Arial;
        letter-spacing: -0.018em;
      }

      .cls-2 {
        fill: url(#linear-gradient);
      }
    </style>
    <linearGradient id="linear-gradient" x1="-0.25" y1="0.291" x2="1.25" y2="0.709" gradientUnits="objectBoundingBox">
      <stop offset="0" stop-color="#002d68"/>
      <stop offset="1" stop-color="#16baf1"/>
    </linearGradient>
  </defs>
  <g id="Entrez_le_code_que_vous_avez_reçu" data-name="Entrez le code que vous avez reçu" transform="translate(-49 -275.86)">
    <text id="Entrez_le_code_que_vous_avez_reçu-2" data-name="Entrez le code que vous avez reçu" class="cls-1" transform="translate(49 312.86)"><tspan x="0" y="0">Entrez le code que vous avez reçu</tspan></text>
    <path id="Gradient_Overlay" data-name="Gradient Overlay" class="cls-2" d="M52.242,312.86V283.521H73.456v3.462H56.125v8.986H72.355v3.442H56.125V309.4H74.136v3.462Zm26.06,0V291.606h3.242v3.022a7.64,7.64,0,0,1,6.764-3.5,8.873,8.873,0,0,1,3.532.69,5.556,5.556,0,0,1,2.412,1.811,6.952,6.952,0,0,1,1.121,2.662,20.626,20.626,0,0,1,.2,3.5V312.86h-3.6V299.932a9.7,9.7,0,0,0-.42-3.292,3.463,3.463,0,0,0-1.491-1.741,4.742,4.742,0,0,0-2.512-.65,5.836,5.836,0,0,0-3.973,1.461Q81.9,297.17,81.9,301.252V312.86Zm29.922-3.222.52,3.182a13.362,13.362,0,0,1-2.722.32,6.162,6.162,0,0,1-3.042-.62,3.474,3.474,0,0,1-1.521-1.631,12.9,12.9,0,0,1-.44-4.253V294.408H98.377v-2.8h2.642v-5.263l3.582-2.161v7.425h3.622v2.8H104.6v12.428a6.278,6.278,0,0,0,.19,1.981,1.5,1.5,0,0,0,.62.7,2.4,2.4,0,0,0,1.231.26A11.72,11.72,0,0,0,108.224,309.638Zm2.744,3.222V291.606h3.242v3.222a8.793,8.793,0,0,1,2.291-2.982,4,4,0,0,1,2.311-.72,7.027,7.027,0,0,1,3.7,1.161l-1.241,3.342a5.154,5.154,0,0,0-2.642-.781,3.431,3.431,0,0,0-2.121.71,3.849,3.849,0,0,0-1.341,1.971,14.032,14.032,0,0,0-.6,4.2V312.86Zm27.5-6.844,3.722.46a9.082,9.082,0,0,1-3.262,5.063,11.051,11.051,0,0,1-13.479-1.071q-2.732-2.872-2.732-8.055,0-5.363,2.762-8.325a9.349,9.349,0,0,1,7.165-2.962,9.086,9.086,0,0,1,6.965,2.9q2.7,2.9,2.7,8.165,0,.32-.02.961h-15.85a8.167,8.167,0,0,0,1.981,5.363,5.9,5.9,0,0,0,4.443,1.861,5.512,5.512,0,0,0,3.382-1.041A6.908,6.908,0,0,0,138.469,306.016Zm-11.828-5.824h11.868a7.2,7.2,0,0,0-1.361-4.023,5.521,5.521,0,0,0-4.463-2.081,5.723,5.723,0,0,0-4.173,1.661A6.574,6.574,0,0,0,126.641,300.192Zm17.434,12.668v-2.922l13.529-15.53q-2.3.12-4.063.12h-8.666v-2.922h17.371v2.382L150.74,307.477l-2.221,2.462q2.422-.18,4.543-.18h9.826v3.1Zm32.226,0V283.521h3.6V312.86Zm23-6.844,3.722.46a9.082,9.082,0,0,1-3.262,5.063,11.051,11.051,0,0,1-13.479-1.071q-2.732-2.872-2.732-8.055,0-5.363,2.762-8.325a9.349,9.349,0,0,1,7.165-2.962,9.086,9.086,0,0,1,6.965,2.9q2.7,2.9,2.7,8.165,0,.32-.02.961h-15.85a8.167,8.167,0,0,0,1.981,5.363,5.9,5.9,0,0,0,4.443,1.861,5.512,5.512,0,0,0,3.382-1.041A6.908,6.908,0,0,0,199.3,306.016Zm-11.828-5.824h11.868a7.2,7.2,0,0,0-1.361-4.023,5.521,5.521,0,0,0-4.463-2.081,5.723,5.723,0,0,0-4.173,1.661A6.574,6.574,0,0,0,187.472,300.192Zm43.854,4.883,3.542.46a9.187,9.187,0,0,1-2.972,5.734,8.658,8.658,0,0,1-5.874,2.071,9.125,9.125,0,0,1-7.015-2.852q-2.652-2.852-2.652-8.175a14.794,14.794,0,0,1,1.141-6.024,7.954,7.954,0,0,1,3.472-3.873,10.3,10.3,0,0,1,5.073-1.291,8.819,8.819,0,0,1,5.664,1.751,8.03,8.03,0,0,1,2.822,4.973l-3.5.54a5.816,5.816,0,0,0-1.771-3.222,4.583,4.583,0,0,0-3.072-1.081,5.591,5.591,0,0,0-4.423,1.951q-1.7,1.951-1.7,6.174,0,4.283,1.641,6.224a5.34,5.34,0,0,0,4.283,1.941,5.048,5.048,0,0,0,3.542-1.3A6.456,6.456,0,0,0,231.325,305.075Zm4.546-2.842q0-5.9,3.282-8.746a9.89,9.89,0,0,1,6.684-2.362A9.536,9.536,0,0,1,253,294q2.782,2.872,2.782,7.935a14.06,14.06,0,0,1-1.231,6.454,8.713,8.713,0,0,1-3.582,3.652,10.43,10.43,0,0,1-5.133,1.3,9.554,9.554,0,0,1-7.215-2.862Q235.871,307.617,235.871,302.233Zm3.7,0q0,4.083,1.781,6.114a5.931,5.931,0,0,0,8.946-.01q1.781-2.041,1.781-6.224,0-3.943-1.791-5.974a5.939,5.939,0,0,0-8.936-.01Q239.574,298.15,239.574,302.233Zm33.484,10.627v-2.682a6.611,6.611,0,0,1-5.944,3.162,8.335,8.335,0,0,1-4.673-1.4,9.213,9.213,0,0,1-3.3-3.913,13.522,13.522,0,0,1-1.171-5.774,15.112,15.112,0,0,1,1.061-5.774,8.366,8.366,0,0,1,3.182-3.973,8.508,8.508,0,0,1,4.743-1.381,7.088,7.088,0,0,1,5.864,2.922V283.521H276.4V312.86Zm-11.387-10.607q0,4.083,1.721,6.1a5.19,5.19,0,0,0,4.063,2.021,5.1,5.1,0,0,0,4.013-1.931q1.651-1.931,1.651-5.894,0-4.363-1.681-6.4a5.171,5.171,0,0,0-4.143-2.041,4.991,4.991,0,0,0-4.013,1.961Q261.671,298.03,261.671,302.253Zm34.2,3.762,3.722.46a9.082,9.082,0,0,1-3.262,5.063,11.051,11.051,0,0,1-13.479-1.071q-2.732-2.872-2.732-8.055,0-5.363,2.762-8.325a9.349,9.349,0,0,1,7.165-2.962,9.086,9.086,0,0,1,6.965,2.9q2.7,2.9,2.7,8.165,0,.32-.02.961h-15.85a8.167,8.167,0,0,0,1.981,5.363,5.9,5.9,0,0,0,4.443,1.861,5.512,5.512,0,0,0,3.382-1.041A6.908,6.908,0,0,0,295.876,306.016Zm-11.828-5.824h11.868a7.2,7.2,0,0,0-1.361-4.023,5.521,5.521,0,0,0-4.463-2.081,5.723,5.723,0,0,0-4.173,1.661A6.574,6.574,0,0,0,284.048,300.192Zm43.534,20.814V310.6a6.444,6.444,0,0,1-2.352,1.961,6.9,6.9,0,0,1-3.212.781,8.493,8.493,0,0,1-6.514-3.022q-2.732-3.022-2.732-8.285a14.206,14.206,0,0,1,1.111-5.744,8.287,8.287,0,0,1,3.222-3.853,8.614,8.614,0,0,1,4.633-1.311,7.118,7.118,0,0,1,6.2,3.322v-2.842h3.242v29.4Zm-11.107-18.832q0,4.1,1.721,6.154a5.218,5.218,0,0,0,4.123,2.051,5.047,5.047,0,0,0,3.963-1.951q1.661-1.951,1.661-5.934,0-4.243-1.751-6.384a5.191,5.191,0,0,0-4.113-2.141,4.964,4.964,0,0,0-3.973,1.991Q316.474,297.95,316.474,302.173Zm33.544,10.687v-3.122a7.779,7.779,0,0,1-6.744,3.6,8.6,8.6,0,0,1-3.512-.72,5.785,5.785,0,0,1-2.422-1.811,6.788,6.788,0,0,1-1.111-2.672,18.292,18.292,0,0,1-.22-3.362V291.606h3.6v11.788a21.006,21.006,0,0,0,.22,3.8,3.757,3.757,0,0,0,1.441,2.231,4.465,4.465,0,0,0,2.722.811,5.929,5.929,0,0,0,3.042-.831,4.618,4.618,0,0,0,2.011-2.261,11.348,11.348,0,0,0,.59-4.153V291.606h3.6V312.86Zm22.677-6.844,3.722.46a9.082,9.082,0,0,1-3.262,5.063,11.051,11.051,0,0,1-13.479-1.071q-2.732-2.872-2.732-8.055,0-5.363,2.762-8.325a9.349,9.349,0,0,1,7.165-2.962,9.086,9.086,0,0,1,6.965,2.9q2.7,2.9,2.7,8.165,0,.32-.02.961h-15.85a8.167,8.167,0,0,0,1.981,5.363,5.9,5.9,0,0,0,4.443,1.861,5.512,5.512,0,0,0,3.382-1.041A6.908,6.908,0,0,0,372.7,306.016Zm-11.828-5.824h11.868a7.2,7.2,0,0,0-1.361-4.023,5.521,5.521,0,0,0-4.463-2.081,5.723,5.723,0,0,0-4.173,1.661A6.574,6.574,0,0,0,360.869,300.192Zm35.889,12.668-8.085-21.254h3.8l4.563,12.728q.74,2.061,1.361,4.283.48-1.681,1.341-4.043l4.723-12.968h3.7L400.12,312.86Zm12.511-10.627q0-5.9,3.282-8.746a9.89,9.89,0,0,1,6.684-2.362A9.536,9.536,0,0,1,426.4,294q2.782,2.872,2.782,7.935a14.06,14.06,0,0,1-1.231,6.454,8.713,8.713,0,0,1-3.582,3.652,10.43,10.43,0,0,1-5.133,1.3,9.554,9.554,0,0,1-7.215-2.862Q409.268,307.617,409.268,302.233Zm3.7,0q0,4.083,1.781,6.114a5.931,5.931,0,0,0,8.946-.01q1.781-2.041,1.781-6.224,0-3.943-1.791-5.974a5.939,5.939,0,0,0-8.936-.01Q412.971,298.15,412.971,302.233ZM446.6,312.86v-3.122a7.779,7.779,0,0,1-6.744,3.6,8.6,8.6,0,0,1-3.512-.72,5.785,5.785,0,0,1-2.422-1.811,6.788,6.788,0,0,1-1.111-2.672,18.292,18.292,0,0,1-.22-3.362V291.606h3.6v11.788a21.006,21.006,0,0,0,.22,3.8,3.757,3.757,0,0,0,1.441,2.231,4.465,4.465,0,0,0,2.722.811,5.929,5.929,0,0,0,3.042-.831,4.618,4.618,0,0,0,2.011-2.261,11.348,11.348,0,0,0,.59-4.153V291.606h3.6V312.86Zm6.687-6.344,3.562-.56a4.979,4.979,0,0,0,1.671,3.282,5.824,5.824,0,0,0,3.832,1.141,5.63,5.63,0,0,0,3.682-1.011,3.022,3.022,0,0,0,1.2-2.372,2.188,2.188,0,0,0-1.061-1.921,15.624,15.624,0,0,0-3.682-1.221,33.6,33.6,0,0,1-5.494-1.731,5.243,5.243,0,0,1-3.112-4.873,5.474,5.474,0,0,1,.65-2.632,5.832,5.832,0,0,1,1.771-2.011,7.426,7.426,0,0,1,2.292-1.051,10.9,10.9,0,0,1,3.112-.43,12.3,12.3,0,0,1,4.393.72,5.975,5.975,0,0,1,2.792,1.951,7.625,7.625,0,0,1,1.241,3.292l-3.522.48a3.853,3.853,0,0,0-1.391-2.562,5.088,5.088,0,0,0-3.252-.921,5.89,5.89,0,0,0-3.542.821,2.389,2.389,0,0,0-1.061,1.921,1.988,1.988,0,0,0,.44,1.261,3.177,3.177,0,0,0,1.381.961q.54.2,3.182.921a44.3,44.3,0,0,1,5.333,1.671,5.411,5.411,0,0,1,2.372,1.891,5.279,5.279,0,0,1,.861,3.082,6.048,6.048,0,0,1-1.051,3.392,6.791,6.791,0,0,1-3.032,2.462,11.036,11.036,0,0,1-4.483.871q-4.143,0-6.314-1.721A8,8,0,0,1,453.282,306.516ZM499,310.238a13.413,13.413,0,0,1-3.852,2.4,11.132,11.132,0,0,1-3.973.7,7.727,7.727,0,0,1-5.383-1.711,5.648,5.648,0,0,1-1.881-4.373,5.815,5.815,0,0,1,.71-2.852,5.881,5.881,0,0,1,1.861-2.071,8.75,8.75,0,0,1,2.592-1.181,25.741,25.741,0,0,1,3.2-.54,32.929,32.929,0,0,0,6.424-1.241q.02-.74.02-.941a3.977,3.977,0,0,0-1.021-3.1,6.029,6.029,0,0,0-4.1-1.221,6.361,6.361,0,0,0-3.752.891,5.441,5.441,0,0,0-1.791,3.152l-3.522-.48a8.727,8.727,0,0,1,1.581-3.652,6.93,6.93,0,0,1,3.182-2.141,14.193,14.193,0,0,1,4.823-.75,12.766,12.766,0,0,1,4.423.64,5.828,5.828,0,0,1,2.5,1.611,5.666,5.666,0,0,1,1.121,2.452,20.281,20.281,0,0,1,.18,3.322v4.8a50.986,50.986,0,0,0,.23,6.354,8.017,8.017,0,0,0,.911,2.552h-3.762A7.639,7.639,0,0,1,499,310.238Zm-.3-8.045a26.43,26.43,0,0,1-5.884,1.361,13.609,13.609,0,0,0-3.142.72,3.132,3.132,0,0,0-1.421,1.171,3.184,3.184,0,0,0,.59,4.113,4.693,4.693,0,0,0,3.192.961,7.429,7.429,0,0,0,3.7-.911,5.607,5.607,0,0,0,2.382-2.492,8.7,8.7,0,0,0,.58-3.6Zm14.392,10.667L505,291.606h3.8l4.563,12.728q.74,2.061,1.361,4.283.48-1.681,1.341-4.043l4.723-12.968h3.7l-8.045,21.254Zm28.4-6.844,3.722.46a9.082,9.082,0,0,1-3.262,5.063,11.051,11.051,0,0,1-13.479-1.071q-2.732-2.872-2.732-8.055,0-5.363,2.762-8.325a9.348,9.348,0,0,1,7.165-2.962,9.086,9.086,0,0,1,6.965,2.9q2.7,2.9,2.7,8.165,0,.32-.02.961h-15.85a8.167,8.167,0,0,0,1.981,5.363,5.9,5.9,0,0,0,4.443,1.861,5.512,5.512,0,0,0,3.382-1.041A6.908,6.908,0,0,0,541.49,306.016Zm-11.828-5.824H541.53a7.2,7.2,0,0,0-1.361-4.023,5.521,5.521,0,0,0-4.463-2.081,5.723,5.723,0,0,0-4.173,1.661A6.574,6.574,0,0,0,529.663,300.192ZM547.1,312.86v-2.922l13.529-15.53q-2.3.12-4.063.12H547.9v-2.922h17.371v2.382l-11.507,13.489-2.221,2.462q2.422-.18,4.543-.18h9.826v3.1Zm32.266,0V291.606h3.242v3.222a8.793,8.793,0,0,1,2.292-2.982,4,4,0,0,1,2.312-.72,7.027,7.027,0,0,1,3.7,1.161l-1.241,3.342a5.154,5.154,0,0,0-2.642-.781,3.431,3.431,0,0,0-2.121.71,3.849,3.849,0,0,0-1.341,1.971,14.032,14.032,0,0,0-.6,4.2V312.86Zm27.5-6.844,3.722.46a9.082,9.082,0,0,1-3.262,5.063,11.051,11.051,0,0,1-13.479-1.071q-2.732-2.872-2.732-8.055,0-5.363,2.762-8.325a9.349,9.349,0,0,1,7.165-2.962,9.086,9.086,0,0,1,6.964,2.9q2.7,2.9,2.7,8.165,0,.32-.02.961h-15.85a8.167,8.167,0,0,0,1.981,5.363,5.9,5.9,0,0,0,4.443,1.861,5.512,5.512,0,0,0,3.382-1.041A6.908,6.908,0,0,0,606.864,306.016Zm-11.828-5.824H606.9a7.2,7.2,0,0,0-1.361-4.023,5.521,5.521,0,0,0-4.463-2.081,5.723,5.723,0,0,0-4.173,1.661A6.574,6.574,0,0,0,595.036,300.192Zm33.2,4.883,3.542.46a9.187,9.187,0,0,1-2.972,5.734,8.658,8.658,0,0,1-5.874,2.071,9.125,9.125,0,0,1-7.015-2.852q-2.652-2.852-2.652-8.175a14.794,14.794,0,0,1,1.141-6.024,7.953,7.953,0,0,1,3.472-3.873,10.3,10.3,0,0,1,5.073-1.291,8.819,8.819,0,0,1,5.664,1.751,8.03,8.03,0,0,1,2.822,4.973l-3.5.54a5.816,5.816,0,0,0-1.771-3.222,4.583,4.583,0,0,0-3.072-1.081,5.592,5.592,0,0,0-4.423,1.951q-1.7,1.951-1.7,6.174,0,4.283,1.641,6.224a5.34,5.34,0,0,0,4.283,1.941,5.048,5.048,0,0,0,3.542-1.3A6.456,6.456,0,0,0,628.24,305.075Zm-8.345,10.467L620.935,312h2.682l-.66,2.141a4.242,4.242,0,0,1,2.562,1.051,2.608,2.608,0,0,1,.861,1.891,3.345,3.345,0,0,1-1.441,2.652,6.875,6.875,0,0,1-4.343,1.151,15.31,15.31,0,0,1-2.882-.24l.22-2.342q1.281.08,1.881.08a4.911,4.911,0,0,0,2.642-.52,1.168,1.168,0,0,0,.58-.981.981.981,0,0,0-.23-.64,1.814,1.814,0,0,0-.851-.48A7.809,7.809,0,0,0,619.895,315.542Zm28.161-2.682v-3.122a7.779,7.779,0,0,1-6.744,3.6,8.6,8.6,0,0,1-3.512-.72,5.785,5.785,0,0,1-2.422-1.811,6.787,6.787,0,0,1-1.111-2.672,18.289,18.289,0,0,1-.22-3.362V291.606h3.6v11.788a21.011,21.011,0,0,0,.22,3.8,3.757,3.757,0,0,0,1.441,2.231,4.464,4.464,0,0,0,2.722.811,5.929,5.929,0,0,0,3.042-.831,4.618,4.618,0,0,0,2.011-2.261,11.347,11.347,0,0,0,.59-4.153V291.606h3.6V312.86Z"/>
  </g>
</svg>
