<svg xmlns="http://www.w3.org/2000/svg" xmlns:xlink="http://www.w3.org/1999/xlink" viewBox="0 0 104.136 66.11">
  <defs>
    <style>
      .cls-1 {
        fill: url(#linear-gradient);
      }
    </style>
    <linearGradient id="linear-gradient" x1="0.533" y1="1.25" x2="0.467" y2="-0.25" gradientUnits="objectBoundingBox">
      <stop offset="0" stop-color="#01144d"/>
      <stop offset="0.005" stop-color="#01144d"/>
      <stop offset="0.171" stop-color="#073471"/>
      <stop offset="0.583" stop-color="#148bc2"/>
      <stop offset="1" stop-color="#53b6ab"/>
    </linearGradient>
  </defs>
  <path id="Forme_1" data-name="Forme 1" class="cls-1" d="M53.258,147.242a37.792,37.792,0,0,1,7.305-14.156c1.461-1.9,9.2-4.379,13-4.962s3.652-3.211,3.652-3.211v-2.919a7.709,7.709,0,0,0-1.858-5.171c-.131-.142-.258-.291-.386-.437-.23-.243-.386-.375-.386-.375l.058-.015a23.384,23.384,0,0,1-4.88-14.725c0-11.123,6.869-20.139,15.341-20.139s15.34,9.016,15.34,20.139a23.561,23.561,0,0,1-4.556,14.319c-2.571,4.123-2.457,5.237-2.457,5.237s0,1.606.147,4.086,3.506,3.357,3.506,3.357c15.048,2.481,16.217,9.632,16.217,9.632l3.652,9.34C83.355,140.674,53.258,147.242,53.258,147.242Zm64.761-10.726s-.913-7.044-9.934-10c-.86-.282-1.912-.473-2.153-1.487-.185-.775,2.847-.871,4.71-1.176,0,0,2.3-.594,2.4-2.278s.1-2.774.1-2.774.078-.756-1.684-3.555a15.893,15.893,0,0,1-3.123-9.72c0-7.55,4.708-13.671,10.516-13.671s10.515,6.121,10.515,13.671a15.776,15.776,0,0,1-3.344,10l.04.01s-.107.09-.266.256c-.087.1-.175.2-.264.3a5.2,5.2,0,0,0-1.274,3.511v1.981s-.1,1.783,2.5,2.18,7.912,2.08,8.913,3.368c0,0,2.285,1.509,2.5,5.888,0,0-.877,3.5-4.164,3.5Zm-79.809,0c-3.288,0-4.164-3.5-4.164-3.5.22-4.378,2.5-5.888,2.5-5.888,1-1.288,6.308-2.972,8.912-3.368s2.5-2.18,2.5-2.18V119.6a5.2,5.2,0,0,0-1.273-3.511c-.09-.1-.176-.2-.264-.3-.158-.166-.266-.256-.266-.256l.04-.01a15.776,15.776,0,0,1-3.344-10c0-7.55,4.708-13.671,10.515-13.671s10.516,6.121,10.516,13.671a15.893,15.893,0,0,1-3.123,9.72c-1.762,2.8-1.684,3.555-1.684,3.555s0,1.09.1,2.774,2.4,2.278,2.4,2.278c1.863.305,4.9.4,4.71,1.176-.241,1.013-1.292,1.205-2.153,1.487-9.021,2.953-9.935,10-9.935,10Z" transform="translate(-34.046 -81.131)"/>
</svg>
