<svg xmlns="http://www.w3.org/2000/svg" xmlns:xlink="http://www.w3.org/1999/xlink" viewBox="0 0 601 185">
  <defs>
    <style>
      .cls-1 {
        font-size: 79.447px;
        font-family: ArialMT, Arial;
      }

      .cls-2 {
        fill: url(#linear-gradient);
      }
    </style>
    <linearGradient id="linear-gradient" y1="0.47" x2="1" y2="0.53" gradientUnits="objectBoundingBox">
      <stop offset="0" stop-color="#073471"/>
      <stop offset="1" stop-color="#148bc2"/>
    </linearGradient>
  </defs>
  <g id="Inscription_d_une_entreprise" data-name="Inscription d’une  entreprise" transform="translate(-45.728 -157.107)">
    <text id="Inscription_d_une_entreprise-2" data-name="Inscription d’une 
entreprise" class="cls-1" transform="translate(45.728 229.107)"><tspan x="0" y="0">Inscription d’une </tspan><tspan x="0" y="95.336">entreprise</tspan></text>
    <path id="Gradient_Overlay" data-name="Gradient Overlay" class="cls-2" d="M53.137,229.107V172.238h7.526v56.869Zm19.9,0v-41.2h6.284v5.858q4.539-6.789,13.112-6.789a17.2,17.2,0,0,1,6.847,1.338,10.77,10.77,0,0,1,4.674,3.511,13.476,13.476,0,0,1,2.172,5.159,39.984,39.984,0,0,1,.388,6.789v25.331H99.533v-25.06a18.811,18.811,0,0,0-.815-6.381,6.712,6.712,0,0,0-2.89-3.375,9.193,9.193,0,0,0-4.868-1.261,11.313,11.313,0,0,0-7.7,2.832q-3.239,2.832-3.239,10.745v22.5Zm41.391-12.3,6.905-1.086a9.651,9.651,0,0,0,3.239,6.362Q127.231,224.3,132,224.3q4.81,0,7.138-1.959a5.859,5.859,0,0,0,2.328-4.6,4.241,4.241,0,0,0-2.056-3.724q-1.435-.931-7.138-2.366a65.135,65.135,0,0,1-10.648-3.356,10.163,10.163,0,0,1-6.032-9.446,10.61,10.61,0,0,1,1.261-5.1,11.3,11.3,0,0,1,3.433-3.9,14.394,14.394,0,0,1,4.442-2.037,21.122,21.122,0,0,1,6.032-.834,23.844,23.844,0,0,1,8.515,1.4,11.581,11.581,0,0,1,5.412,3.782,14.78,14.78,0,0,1,2.405,6.381l-6.827.931a7.468,7.468,0,0,0-2.7-4.965,9.861,9.861,0,0,0-6.3-1.784q-4.81,0-6.866,1.59a4.63,4.63,0,0,0-2.056,3.724,3.854,3.854,0,0,0,.853,2.444,6.158,6.158,0,0,0,2.677,1.862q1.047.388,6.168,1.784a85.865,85.865,0,0,1,10.338,3.239,10.489,10.489,0,0,1,4.6,3.666A10.233,10.233,0,0,1,148.644,217a11.723,11.723,0,0,1-2.037,6.575,13.163,13.163,0,0,1-5.877,4.771,21.392,21.392,0,0,1-8.689,1.687q-8.03,0-12.239-3.336T114.429,216.81Zm69.4-2.793,6.866.892a17.808,17.808,0,0,1-5.761,11.114,16.782,16.782,0,0,1-11.386,4.015q-8.457,0-13.6-5.528t-5.14-15.847a28.676,28.676,0,0,1,2.211-11.676,15.417,15.417,0,0,1,6.73-7.506,19.969,19.969,0,0,1,9.834-2.5q6.711,0,10.978,3.394a15.565,15.565,0,0,1,5.47,9.64l-6.789,1.047a11.273,11.273,0,0,0-3.433-6.246,8.883,8.883,0,0,0-5.955-2.095,10.838,10.838,0,0,0-8.573,3.782q-3.3,3.782-3.3,11.967,0,8.3,3.181,12.064a10.352,10.352,0,0,0,8.3,3.763,9.784,9.784,0,0,0,6.866-2.521Q183.091,219.254,183.828,214.017Zm12.763,15.09v-41.2h6.284v6.246q2.405-4.384,4.442-5.78a7.753,7.753,0,0,1,4.48-1.4,13.62,13.62,0,0,1,7.177,2.25l-2.405,6.478a9.991,9.991,0,0,0-5.121-1.513,6.65,6.65,0,0,0-4.112,1.377,7.46,7.46,0,0,0-2.6,3.821,27.2,27.2,0,0,0-1.164,8.146v21.568Zm26.573-48.839v-8.03h6.983v8.03Zm0,48.839v-41.2h6.983v41.2ZM240.776,244.9V187.91h6.362v5.353a15.682,15.682,0,0,1,5.082-4.713,13.963,13.963,0,0,1,6.866-1.571,16.279,16.279,0,0,1,9.31,2.715,16.666,16.666,0,0,1,6.09,7.661,27.973,27.973,0,0,1,2.056,10.842,27.539,27.539,0,0,1-2.269,11.386,17.107,17.107,0,0,1-6.595,7.758,16.932,16.932,0,0,1-9.1,2.7,13.14,13.14,0,0,1-6.265-1.474,14.267,14.267,0,0,1-4.558-3.724V244.9Zm6.323-36.154q0,7.952,3.22,11.754a9.874,9.874,0,0,0,7.8,3.8,10.094,10.094,0,0,0,7.972-3.937q3.317-3.937,3.317-12.2,0-7.875-3.239-11.793a9.752,9.752,0,0,0-7.739-3.918q-4.461,0-7.894,4.17T247.1,208.741Zm53.107,14.12,1.009,6.168a25.9,25.9,0,0,1-5.276.621,11.944,11.944,0,0,1-5.9-1.2,6.734,6.734,0,0,1-2.948-3.162q-.853-1.959-.853-8.243v-23.7h-5.121V187.91h5.121v-10.2l6.944-4.19V187.91h7.021v5.431h-7.021v24.09a12.169,12.169,0,0,0,.369,3.84,2.908,2.908,0,0,0,1.2,1.358,4.645,4.645,0,0,0,2.386.5A22.714,22.714,0,0,0,300.205,222.861Zm6.866-42.594v-8.03h6.983v8.03Zm0,48.839v-41.2h6.983v41.2Zm15.013-20.6q0-11.444,6.362-16.952a19.17,19.17,0,0,1,12.957-4.577,18.484,18.484,0,0,1,13.888,5.567q5.392,5.567,5.392,15.381,0,7.952-2.386,12.51a16.888,16.888,0,0,1-6.944,7.08,20.216,20.216,0,0,1-9.95,2.521q-8.651,0-13.985-5.547T322.084,208.508Zm7.177,0q0,7.914,3.453,11.851a11.5,11.5,0,0,0,17.34-.019q3.452-3.957,3.453-12.064,0-7.642-3.472-11.579a11.512,11.512,0,0,0-17.321-.019Q329.261,200.595,329.261,208.508Zm39.607,20.6v-41.2h6.284v5.858q4.539-6.789,13.112-6.789a17.2,17.2,0,0,1,6.847,1.338,10.77,10.77,0,0,1,4.674,3.511,13.476,13.476,0,0,1,2.172,5.159,39.98,39.98,0,0,1,.388,6.789v25.331h-6.983v-25.06a18.811,18.811,0,0,0-.815-6.381,6.712,6.712,0,0,0-2.89-3.375,9.193,9.193,0,0,0-4.868-1.261,11.313,11.313,0,0,0-7.7,2.832q-3.239,2.832-3.239,10.745v22.5Zm92.985,0v-5.2a12.814,12.814,0,0,1-11.521,6.129,16.155,16.155,0,0,1-9.058-2.715,17.857,17.857,0,0,1-6.4-7.584,26.211,26.211,0,0,1-2.269-11.192,29.292,29.292,0,0,1,2.056-11.192,16.216,16.216,0,0,1,6.168-7.7,16.49,16.49,0,0,1,9.194-2.677,13.739,13.739,0,0,1,11.366,5.664v-20.4h6.944v56.869Zm-22.073-20.56q0,7.914,3.336,11.832a10.059,10.059,0,0,0,7.875,3.918,9.875,9.875,0,0,0,7.778-3.743q3.2-3.743,3.2-11.424,0-8.457-3.259-12.414a10.023,10.023,0,0,0-8.03-3.957,9.675,9.675,0,0,0-7.778,3.8Q439.78,200.362,439.78,208.547Zm39.1-28.784v-8.108h7.487v6.4q0,5.2-1.2,7.487a10.586,10.586,0,0,1-5.2,4.733l-1.707-2.754a6.064,6.064,0,0,0,3.123-2.7,11.308,11.308,0,0,0,1.144-5.062Zm45.077,49.344v-6.052a15.079,15.079,0,0,1-13.073,6.983,16.659,16.659,0,0,1-6.808-1.4,11.213,11.213,0,0,1-4.694-3.511,13.157,13.157,0,0,1-2.153-5.179,35.456,35.456,0,0,1-.427-6.517V187.91h6.983v22.849a40.716,40.716,0,0,0,.427,7.371,7.282,7.282,0,0,0,2.793,4.325,8.654,8.654,0,0,0,5.276,1.571,11.492,11.492,0,0,0,5.9-1.61,8.952,8.952,0,0,0,3.9-4.384,22,22,0,0,0,1.144-8.049V187.91H530.2v41.2Zm17.185,0v-41.2h6.284v5.858q4.539-6.789,13.112-6.789a17.2,17.2,0,0,1,6.847,1.338,10.77,10.77,0,0,1,4.674,3.511,13.475,13.475,0,0,1,2.172,5.159,39.983,39.983,0,0,1,.388,6.789v25.331h-6.983v-25.06a18.811,18.811,0,0,0-.815-6.381,6.712,6.712,0,0,0-2.89-3.375,9.193,9.193,0,0,0-4.868-1.261,11.313,11.313,0,0,0-7.7,2.832q-3.239,2.832-3.239,10.745v22.5ZM613.53,215.84l7.215.892a17.6,17.6,0,0,1-6.323,9.814q-4.616,3.491-11.793,3.491-9.039,0-14.334-5.567T583,208.857q0-10.4,5.353-16.138a18.121,18.121,0,0,1,13.888-5.741,17.613,17.613,0,0,1,13.5,5.625q5.237,5.625,5.237,15.827,0,.621-.039,1.862H590.216q.388,6.789,3.84,10.4a11.43,11.43,0,0,0,8.612,3.608,10.685,10.685,0,0,0,6.556-2.017A13.39,13.39,0,0,0,613.53,215.84ZM590.6,204.551h23q-.466-5.2-2.638-7.8a10.7,10.7,0,0,0-8.651-4.034,11.093,11.093,0,0,0-8.088,3.22A12.743,12.743,0,0,0,590.6,204.551ZM79.167,311.176l7.215.892a17.6,17.6,0,0,1-6.323,9.814q-4.616,3.491-11.793,3.491-9.039,0-14.334-5.567t-5.3-15.614q0-10.4,5.353-16.138a18.121,18.121,0,0,1,13.888-5.741,17.613,17.613,0,0,1,13.5,5.625q5.237,5.625,5.237,15.827,0,.621-.039,1.862H55.853q.388,6.789,3.84,10.4a11.431,11.431,0,0,0,8.612,3.608,10.684,10.684,0,0,0,6.556-2.017A13.39,13.39,0,0,0,79.167,311.176ZM56.241,299.887h23q-.466-5.2-2.638-7.8a10.7,10.7,0,0,0-8.651-4.034,11.093,11.093,0,0,0-8.088,3.22A12.743,12.743,0,0,0,56.241,299.887Zm38.909,24.556v-41.2h6.284V289.1q4.539-6.789,13.112-6.789a17.2,17.2,0,0,1,6.847,1.338,10.77,10.77,0,0,1,4.674,3.511,13.476,13.476,0,0,1,2.172,5.159,39.982,39.982,0,0,1,.388,6.789v25.331h-6.983v-25.06A18.811,18.811,0,0,0,120.83,293a6.712,6.712,0,0,0-2.89-3.375,9.193,9.193,0,0,0-4.868-1.261,11.313,11.313,0,0,0-7.7,2.832q-3.239,2.832-3.239,10.745v22.5Zm59.43-6.246,1.009,6.168a25.9,25.9,0,0,1-5.276.621,11.944,11.944,0,0,1-5.9-1.2,6.733,6.733,0,0,1-2.948-3.162q-.853-1.959-.853-8.243v-23.7h-5.121v-5.431h5.121v-10.2l6.944-4.19v14.392h7.021v5.431h-7.021v24.09a12.169,12.169,0,0,0,.369,3.84,2.908,2.908,0,0,0,1.2,1.358,4.645,4.645,0,0,0,2.386.5A22.715,22.715,0,0,0,154.579,318.2Zm6.75,6.246v-41.2h6.284v6.246q2.405-4.383,4.442-5.78a7.753,7.753,0,0,1,4.481-1.4,13.62,13.62,0,0,1,7.177,2.25l-2.405,6.478a9.991,9.991,0,0,0-5.121-1.513,6.65,6.65,0,0,0-4.112,1.377,7.46,7.46,0,0,0-2.6,3.821,27.2,27.2,0,0,0-1.164,8.146v21.568Zm54.736-13.267,7.215.892a17.6,17.6,0,0,1-6.323,9.814q-4.616,3.491-11.793,3.491-9.039,0-14.334-5.567t-5.3-15.614q0-10.4,5.353-16.138a18.121,18.121,0,0,1,13.888-5.741,17.613,17.613,0,0,1,13.5,5.625q5.237,5.625,5.237,15.827,0,.621-.039,1.862H192.751q.388,6.789,3.84,10.4a11.431,11.431,0,0,0,8.612,3.608,10.684,10.684,0,0,0,6.556-2.017A13.39,13.39,0,0,0,216.065,311.176Zm-22.926-11.289h23q-.466-5.2-2.638-7.8a10.7,10.7,0,0,0-8.651-4.034,11.092,11.092,0,0,0-8.088,3.22A12.743,12.743,0,0,0,193.139,299.887Zm38.909,40.344V283.245h6.362V288.6a15.682,15.682,0,0,1,5.082-4.713,13.963,13.963,0,0,1,6.866-1.571,16.279,16.279,0,0,1,9.31,2.715,16.666,16.666,0,0,1,6.09,7.661,27.973,27.973,0,0,1,2.056,10.842,27.539,27.539,0,0,1-2.269,11.386,17.107,17.107,0,0,1-6.595,7.758,16.933,16.933,0,0,1-9.1,2.7,13.14,13.14,0,0,1-6.265-1.474,14.267,14.267,0,0,1-4.558-3.724v20.056Zm6.323-36.154q0,7.952,3.22,11.754a9.874,9.874,0,0,0,7.8,3.8,10.094,10.094,0,0,0,7.972-3.937q3.317-3.937,3.317-12.2,0-7.875-3.239-11.793a9.752,9.752,0,0,0-7.739-3.918q-4.461,0-7.894,4.17T238.37,304.077Zm37.784,20.366v-41.2h6.284v6.246q2.405-4.383,4.442-5.78a7.753,7.753,0,0,1,4.48-1.4,13.62,13.62,0,0,1,7.177,2.25l-2.405,6.478a9.991,9.991,0,0,0-5.121-1.513,6.65,6.65,0,0,0-4.112,1.377,7.46,7.46,0,0,0-2.6,3.821,27.2,27.2,0,0,0-1.164,8.146v21.568ZM302.727,275.6v-8.03h6.983v8.03Zm0,48.839v-41.2h6.983v41.2Zm14.819-12.3,6.905-1.086a9.651,9.651,0,0,0,3.239,6.362q2.657,2.211,7.429,2.211,4.81,0,7.138-1.959a5.859,5.859,0,0,0,2.328-4.6,4.241,4.241,0,0,0-2.056-3.724q-1.435-.931-7.138-2.366a65.136,65.136,0,0,1-10.648-3.356,10.164,10.164,0,0,1-6.032-9.446,10.61,10.61,0,0,1,1.261-5.1,11.305,11.305,0,0,1,3.433-3.9,14.393,14.393,0,0,1,4.442-2.037,21.122,21.122,0,0,1,6.032-.834,23.844,23.844,0,0,1,8.515,1.4,11.581,11.581,0,0,1,5.412,3.782,14.779,14.779,0,0,1,2.405,6.381l-6.827.931a7.468,7.468,0,0,0-2.7-4.965,9.861,9.861,0,0,0-6.3-1.784q-4.81,0-6.866,1.59a4.63,4.63,0,0,0-2.056,3.724,3.854,3.854,0,0,0,.853,2.444,6.158,6.158,0,0,0,2.677,1.862q1.047.388,6.168,1.784A85.872,85.872,0,0,1,345.5,302.7a10.489,10.489,0,0,1,4.6,3.666,10.233,10.233,0,0,1,1.668,5.974,11.723,11.723,0,0,1-2.037,6.575,13.163,13.163,0,0,1-5.877,4.771,21.392,21.392,0,0,1-8.689,1.687q-8.03,0-12.239-3.336T317.545,312.146Zm70.718-.97,7.215.892a17.6,17.6,0,0,1-6.323,9.814q-4.616,3.491-11.793,3.491-9.039,0-14.334-5.567t-5.3-15.614q0-10.4,5.353-16.138a18.121,18.121,0,0,1,13.888-5.741,17.613,17.613,0,0,1,13.5,5.625q5.237,5.625,5.237,15.827,0,.621-.039,1.862H364.95q.388,6.789,3.84,10.4a11.431,11.431,0,0,0,8.612,3.608,10.684,10.684,0,0,0,6.556-2.017A13.39,13.39,0,0,0,388.264,311.176Zm-22.926-11.289h23q-.465-5.2-2.638-7.8a10.7,10.7,0,0,0-8.651-4.034,11.093,11.093,0,0,0-8.088,3.22A12.743,12.743,0,0,0,365.337,299.887Z"/>
  </g>
</svg>
