<svg xmlns="http://www.w3.org/2000/svg" xmlns:xlink="http://www.w3.org/1999/xlink" viewBox="0 0 391 97">
  <defs>
    <style>
      .cls-1 {
        font-size: 86.719px;
        font-family: ArialMT, Arial;
        letter-spacing: -0.005em;
      }

      .cls-2 {
        fill: url(#linear-gradient);
      }
    </style>
    <linearGradient id="linear-gradient" x1="-0.25" y1="0.438" x2="1.25" y2="0.562" gradientUnits="objectBoundingBox">
      <stop offset="0" stop-color="#073471"/>
      <stop offset="1" stop-color="#34c5f5"/>
    </linearGradient>
  </defs>
  <g id="Inscription" transform="translate(-43.728 -142.877)">
    <text id="Inscription-2" data-name="Inscription" class="cls-1" transform="translate(43.728 221.877)"><tspan x="0" y="0">Inscription</tspan></text>
    <path id="Gradient_Overlay" data-name="Gradient Overlay" class="cls-2" d="M51.816,221.877V159.8H60.03v62.076Zm21.289,0V176.908h6.86V183.3q4.954-7.41,14.312-7.41a18.775,18.775,0,0,1,7.474,1.461,11.756,11.756,0,0,1,5.1,3.832,14.709,14.709,0,0,1,2.371,5.632,43.644,43.644,0,0,1,.423,7.41v27.65h-7.622V194.523a20.533,20.533,0,0,0-.889-6.965,7.327,7.327,0,0,0-3.155-3.684,10.034,10.034,0,0,0-5.314-1.376,12.349,12.349,0,0,0-8.405,3.091q-3.536,3.091-3.536,11.729v24.559Zm44.747-13.423,7.537-1.186a10.534,10.534,0,0,0,3.536,6.944q2.9,2.414,8.109,2.414,5.251,0,7.791-2.138a6.4,6.4,0,0,0,2.541-5.018,4.629,4.629,0,0,0-2.244-4.065q-1.567-1.016-7.791-2.583a71.1,71.1,0,0,1-11.623-3.663,11.094,11.094,0,0,1-6.584-10.311,11.582,11.582,0,0,1,1.376-5.568,12.34,12.34,0,0,1,3.747-4.256,15.711,15.711,0,0,1,4.848-2.223,23.055,23.055,0,0,1,6.584-.91,26.027,26.027,0,0,1,9.294,1.524,12.641,12.641,0,0,1,5.907,4.128,16.132,16.132,0,0,1,2.625,6.965l-7.452,1.016a8.151,8.151,0,0,0-2.943-5.42q-2.435-1.948-6.881-1.948-5.251,0-7.495,1.736a5.054,5.054,0,0,0-2.244,4.065,4.207,4.207,0,0,0,.932,2.668,6.721,6.721,0,0,0,2.922,2.032q1.143.423,6.733,1.948a93.727,93.727,0,0,1,11.285,3.536,11.449,11.449,0,0,1,5.018,4,11.169,11.169,0,0,1,1.821,6.521,12.8,12.8,0,0,1-2.223,7.177,14.368,14.368,0,0,1-6.415,5.208,23.35,23.35,0,0,1-9.485,1.842q-8.765,0-13.359-3.642T117.851,208.454Zm75.319-3.049,7.495.974q-1.228,7.749-6.288,12.131a18.318,18.318,0,0,1-12.428,4.383q-9.231,0-14.841-6.034t-5.611-17.3a31.3,31.3,0,0,1,2.414-12.745,16.828,16.828,0,0,1,7.347-8.193,21.8,21.8,0,0,1,10.734-2.731q7.325,0,11.983,3.705a16.989,16.989,0,0,1,5.97,10.522l-7.41,1.143a12.3,12.3,0,0,0-3.747-6.817,9.7,9.7,0,0,0-6.5-2.287,11.83,11.83,0,0,0-9.358,4.128q-3.6,4.129-3.6,13.063,0,9.062,3.472,13.169a11.3,11.3,0,0,0,9.061,4.107,10.68,10.68,0,0,0,7.495-2.752Q192.365,211.122,193.17,205.405Zm13.5,16.472V176.908h6.86v6.817q2.625-4.785,4.848-6.309a8.463,8.463,0,0,1,4.891-1.524,14.867,14.867,0,0,1,7.834,2.456l-2.625,7.071a10.905,10.905,0,0,0-5.589-1.651,7.259,7.259,0,0,0-4.488,1.5,8.143,8.143,0,0,0-2.837,4.171,29.688,29.688,0,0,0-1.27,8.892v23.543Zm28.572-53.31V159.8h7.622v8.765Zm0,53.31V176.908h7.622v44.969Zm18.79,17.234v-62.2h6.944v5.843a17.118,17.118,0,0,1,5.547-5.145,15.241,15.241,0,0,1,7.495-1.715,17.769,17.769,0,0,1,10.162,2.964,18.191,18.191,0,0,1,6.648,8.363,30.534,30.534,0,0,1,2.244,11.835,30.06,30.06,0,0,1-2.477,12.428,18.673,18.673,0,0,1-7.2,8.469,18.483,18.483,0,0,1-9.93,2.943,14.343,14.343,0,0,1-6.838-1.609,15.574,15.574,0,0,1-4.975-4.065v21.892Zm6.9-39.464q0,8.68,3.514,12.83a10.778,10.778,0,0,0,8.511,4.15,11.018,11.018,0,0,0,8.7-4.3q3.62-4.3,3.62-13.317,0-8.6-3.536-12.872a10.644,10.644,0,0,0-8.448-4.277q-4.87,0-8.617,4.552T260.931,199.647Zm57.535,15.413,1.1,6.733a28.272,28.272,0,0,1-5.759.677,13.037,13.037,0,0,1-6.436-1.313,7.35,7.35,0,0,1-3.218-3.451q-.932-2.138-.932-9V182.836h-5.589v-5.928h5.589V165.772L310.8,161.2v15.709h7.664v5.928H310.8v26.3a13.284,13.284,0,0,0,.4,4.192,3.174,3.174,0,0,0,1.313,1.482,5.07,5.07,0,0,0,2.6.55A24.794,24.794,0,0,0,318.466,215.06Zm7.061-46.493V159.8h7.622v8.765Zm0,53.31V176.908h7.622v44.969Zm15.953-22.484q0-12.491,6.944-18.5a20.925,20.925,0,0,1,14.143-5q9.273,0,15.159,6.076t5.886,16.789q0,8.68-2.6,13.656a18.434,18.434,0,0,1-7.579,7.728,22.067,22.067,0,0,1-10.861,2.752q-9.443,0-15.265-6.055T341.48,199.393Zm7.834,0q0,8.638,3.769,12.936a12.548,12.548,0,0,0,18.928-.021q3.769-4.319,3.769-13.169,0-8.342-3.79-12.64a12.565,12.565,0,0,0-18.906-.021Q349.314,190.755,349.314,199.393Zm42.8,22.484V176.908h6.86V183.3q4.954-7.41,14.312-7.41a18.775,18.775,0,0,1,7.474,1.461,11.756,11.756,0,0,1,5.1,3.832,14.709,14.709,0,0,1,2.371,5.632,43.643,43.643,0,0,1,.423,7.41v27.65h-7.622V194.523a20.533,20.533,0,0,0-.889-6.965,7.327,7.327,0,0,0-3.155-3.684,10.034,10.034,0,0,0-5.314-1.376,12.349,12.349,0,0,0-8.405,3.091q-3.536,3.091-3.536,11.729v24.559Z"/>
  </g>
</svg>
