<svg xmlns="http://www.w3.org/2000/svg" xmlns:xlink="http://www.w3.org/1999/xlink" viewBox="0 0 510.68 148.213">
  <defs>
    <style>
      .cls-1 {
        fill: none;
      }

      .cls-2 {
        fill: url(#linear-gradient);
      }

      .cls-3, .cls-4 {
        stroke: none;
      }

      .cls-4 {
        fill: #09ace3;
      }
    </style>
    <linearGradient id="linear-gradient" x1="0.573" y1="1.25" x2="0.427" y2="-0.25" gradientUnits="objectBoundingBox">
      <stop offset="0" stop-color="#01144d"/>
      <stop offset="0.005" stop-color="#01144d"/>
      <stop offset="0.171" stop-color="#073471"/>
      <stop offset="0.583" stop-color="#148bc2"/>
      <stop offset="1" stop-color="#53b6ab"/>
    </linearGradient>
  </defs>
  <g id="Groupe_2" data-name="Groupe 2" transform="translate(-120.16 -253.388)">
    <g id="Forme_3" data-name="Forme 3" class="cls-1">
      <path class="cls-3" d="M559.775,401.6H191.225c-39.086,0-71.065-32.044-71.065-71.208v-5.8c0-39.165,31.98-71.208,71.065-71.208H559.775c39.086,0,71.065,32.044,71.065,71.208v5.8C630.84,369.558,598.86,401.6,559.775,401.6Z"/>
      <path class="cls-4" d="M 559.7745971679688 395.8915100097656 C 595.8115844726563 395.8915100097656 625.1299438476563 366.5090942382813 625.1299438476563 330.3930969238281 L 625.1299438476563 324.5967102050781 C 625.1299438476563 288.480712890625 595.8115844726563 259.0982971191406 559.7745971679688 259.0982971191406 L 191.2253723144531 259.0982971191406 C 155.1883697509766 259.0982971191406 125.8699722290039 288.480712890625 125.8699722290039 324.5967102050781 L 125.8699722290039 330.3930969238281 C 125.8699722290039 366.5090942382813 155.1883697509766 395.8915100097656 191.2253723144531 395.8915100097656 L 559.7745971679688 395.8915100097656 M 559.7745971679688 401.6015014648438 L 191.2253723144531 401.6015014648438 C 152.1393737792969 401.6015014648438 120.1599731445313 369.5574951171875 120.1599731445313 330.3930969238281 L 120.1599731445313 324.5967102050781 C 120.1599731445313 285.4320983886719 152.1393737792969 253.3883056640625 191.2253723144531 253.3883056640625 L 559.7745971679688 253.3883056640625 C 598.860595703125 253.3883056640625 630.8399658203125 285.4320983886719 630.8399658203125 324.5967102050781 L 630.8399658203125 330.3930969238281 C 630.8399658203125 369.5574951171875 598.860595703125 401.6015014648438 559.7745971679688 401.6015014648438 Z"/>
    </g>
    <path id="Forme_4" data-name="Forme 4" class="cls-2" d="M374.493,280.234a34.357,34.357,0,0,0-34.541,34.17,33.728,33.728,0,0,0,3.614,15.232l31.068,47.11L405.14,330.18a33.727,33.727,0,0,0,3.894-15.776A34.357,34.357,0,0,0,374.493,280.234Zm-.7,46.861a13.39,13.39,0,1,1,13.534-13.389A13.463,13.463,0,0,1,373.788,327.1Z"/>
  </g>
</svg>
