<svg xmlns="http://www.w3.org/2000/svg" xmlns:xlink="http://www.w3.org/1999/xlink" viewBox="0 0 313 98">
  <defs>
    <style>
      .cls-1 {
        font-size: 87.329px;
        font-family: ArialMT, Arial;
        letter-spacing: -0.018em;
      }

      .cls-2 {
        fill: url(#linear-gradient);
      }
    </style>
    <linearGradient id="linear-gradient" y1="0.458" x2="1" y2="0.542" gradientUnits="objectBoundingBox">
      <stop offset="0" stop-color="#073471"/>
      <stop offset="1" stop-color="#148bc2"/>
    </linearGradient>
  </defs>
  <g id="membre" transform="translate(-43.29 -236.878)">
    <text id="membre-2" data-name="membre" class="cls-1" transform="translate(43.29 315.878)"><tspan x="0" y="0">membre</tspan></text>
    <path id="Gradient_Overlay" data-name="Gradient Overlay" class="cls-2" d="M49.047,315.878V270.593h6.865v6.354a16.14,16.14,0,0,1,5.671-5.351,15.933,15.933,0,0,1,8.059-2.025,14.9,14.9,0,0,1,8.251,2.089,11.182,11.182,0,0,1,4.541,5.842q5.373-7.931,13.986-7.931,6.737,0,10.362,3.731t3.624,11.492v31.085h-7.633V287.351a21,21,0,0,0-.746-6.631,6.423,6.423,0,0,0-2.708-3.262,8.452,8.452,0,0,0-4.605-1.237,10.717,10.717,0,0,0-7.931,3.177q-3.155,3.177-3.155,10.17v26.31H75.953V286.456q0-5.117-1.876-7.675t-6.14-2.558a11.154,11.154,0,0,0-5.991,1.706,9.675,9.675,0,0,0-3.987,4.989,28.083,28.083,0,0,0-1.237,9.466v23.5ZM151.22,301.295l7.931.981a19.351,19.351,0,0,1-6.95,10.788q-5.074,3.838-12.963,3.838-9.935,0-15.756-6.119t-5.821-17.163q0-11.428,5.884-17.739t15.265-6.311a19.36,19.36,0,0,1,14.839,6.183q5.757,6.183,5.757,17.4,0,.682-.043,2.047H125.593q.426,7.462,4.221,11.428a12.564,12.564,0,0,0,9.466,3.966,11.745,11.745,0,0,0,7.206-2.217A14.719,14.719,0,0,0,151.22,301.295Zm-25.2-12.409h25.286q-.512-5.714-2.9-8.571a11.763,11.763,0,0,0-9.509-4.435,12.193,12.193,0,0,0-8.891,3.539A14.008,14.008,0,0,0,126.019,288.886Zm41.2,26.992V270.593h6.865v6.354a16.141,16.141,0,0,1,5.671-5.351,15.933,15.933,0,0,1,8.059-2.025,14.9,14.9,0,0,1,8.251,2.089A11.182,11.182,0,0,1,200.6,277.5q5.373-7.931,13.986-7.931,6.737,0,10.362,3.731t3.624,11.492v31.085h-7.633V287.351a21,21,0,0,0-.746-6.631,6.423,6.423,0,0,0-2.708-3.262,8.452,8.452,0,0,0-4.605-1.237,10.717,10.717,0,0,0-7.931,3.177q-3.155,3.177-3.155,10.17v26.31h-7.675V286.456q0-5.117-1.876-7.675t-6.14-2.558a11.154,11.154,0,0,0-5.991,1.706,9.675,9.675,0,0,0-3.987,4.989,28.083,28.083,0,0,0-1.237,9.466v23.5Zm78.252,0h-7.121V253.366h7.675v22.3a15.187,15.187,0,0,1,12.409-6.1,19,19,0,0,1,7.91,1.684,16.153,16.153,0,0,1,6.14,4.733,22.88,22.88,0,0,1,3.774,7.356,30.326,30.326,0,0,1,1.365,9.21q0,11.641-5.757,17.995a18,18,0,0,1-13.816,6.354,14.42,14.42,0,0,1-12.579-6.695Zm-.085-22.984q0,8.144,2.217,11.769,3.624,5.927,9.807,5.927a11.039,11.039,0,0,0,8.7-4.371q3.667-4.371,3.667-13.027,0-8.869-3.518-13.091a10.713,10.713,0,0,0-8.507-4.221,11.039,11.039,0,0,0-8.7,4.371Q245.383,284.622,245.383,292.894ZM285.3,315.878V270.593h6.908v6.865q2.644-4.818,4.882-6.354a8.523,8.523,0,0,1,4.925-1.535,14.971,14.971,0,0,1,7.889,2.473l-2.644,7.121a10.982,10.982,0,0,0-5.629-1.663,7.31,7.31,0,0,0-4.52,1.514,8.2,8.2,0,0,0-2.857,4.2,29.9,29.9,0,0,0-1.279,8.955v23.708ZM343.9,301.295l7.931.981a19.351,19.351,0,0,1-6.95,10.788Q339.8,316.9,331.913,316.9q-9.935,0-15.756-6.119t-5.82-17.163q0-11.428,5.884-17.739t15.265-6.311a19.36,19.36,0,0,1,14.839,6.183q5.757,6.183,5.757,17.4,0,.682-.043,2.047H318.268q.426,7.462,4.221,11.428a12.564,12.564,0,0,0,9.466,3.966,11.745,11.745,0,0,0,7.206-2.217A14.719,14.719,0,0,0,343.9,301.295Zm-25.2-12.409h25.286q-.512-5.714-2.9-8.571a11.763,11.763,0,0,0-9.509-4.435,12.193,12.193,0,0,0-8.891,3.539A14.007,14.007,0,0,0,318.695,288.886Z"/>
  </g>
</svg>
