<svg xmlns="http://www.w3.org/2000/svg" xmlns:xlink="http://www.w3.org/1999/xlink" viewBox="0 0 146 146">
  <defs>
    <style>
      .cls-1 {
        fill: url(#linear-gradient);
      }

      .cls-2 {
        fill: #fff;
      }
    </style>
    <linearGradient id="linear-gradient" y1="0.491" x2="1" y2="0.509" gradientUnits="objectBoundingBox">
      <stop offset="0" stop-color="#043f79"/>
      <stop offset="1" stop-color="#06a2d9"/>
    </linearGradient>
  </defs>
  <g id="Groupe_2" data-name="Groupe 2" transform="translate(-302 -140)">
    <rect id="Rectangle_arrondi_1" data-name="Rectangle arrondi 1" class="cls-1" width="146" height="146" rx="70.5" transform="translate(302 140)"/>
    <path id="Forme_4" data-name="Forme 4" class="cls-2" d="M416.479,187.626C412.573,174.876,397.284,165,374.546,165c-22.16,0-39.632,9.923-40.508,22.77H334v1s0,.008,0,.012,0,.009,0,.014v44.572a19.2,19.2,0,0,0,7.708,15.334c6.793,5.053,15.176,11.29,31.6,11.29q1.074,0,2.2-.036c17.852-.581,27.946-5.111,33.27-9.651,4.448-3.792,8-10.338,8-16.2V191.736A10.437,10.437,0,0,0,416.479,187.626ZM406.717,218.5c-3.456,3.553-12.872,11.042-31.511,11.985-23.619,1.2-33.426-10.667-34.172-11.617V204.038c7.242,6.674,19.429,10.532,33.512,10.532,12.569,0,24.239-3.81,32.171-9.466Zm-32.171-46.467c20.046,0,32.708,8.662,32.507,16.747-.167,6.7-12.46,14.736-32.507,14.736s-33.5-6.643-33.512-14.727v-.019C341.045,180.684,354.508,172.031,374.546,172.031ZM404.2,243.944c-4.469,3.811-13.115,8.461-28.932,8.977-15.407.51-22.509-4.768-29.362-9.866a12.134,12.134,0,0,1-4.873-9.691v-5c5.6,4.163,15.565,9.235,30.89,9.235q1.769,0,3.638-.093c15.2-.769,25.16-5.542,31.155-9.834V234.1C406.717,237.9,407.079,241.49,404.2,243.944Z"/>
  </g>
</svg>
