<svg xmlns="http://www.w3.org/2000/svg" viewBox="0 0 26.997 28.007">
  <defs>
    <style>
      .cls-1 {
        fill: #94a9b3;
      }
    </style>
  </defs>
  <path id="Forme_1_copie_2" data-name="Forme 1 copie 2" class="cls-1" d="M106.45,520.044s-.5-3.029-6.873-4.08c0,0-1.424-.371-1.486-1.422s-.062-1.731-.062-1.731-.049-.472,1.041-2.219A9.98,9.98,0,0,0,101,504.526c0-4.712-2.911-8.532-6.5-8.532s-6.5,3.82-6.5,8.532a9.9,9.9,0,0,0,2.068,6.238l-.024.007s.066.056.164.159c.054.063.108.125.163.185a3.267,3.267,0,0,1,.787,2.191v1.237s.062,1.113-1.548,1.36-4.892,1.3-5.511,2.1a16,16,0,0,0-3.1,6,74.364,74.364,0,0,1,27,0Z" transform="translate(-81.001 -495.995)"/>
</svg>
