<svg xmlns="http://www.w3.org/2000/svg" xmlns:xlink="http://www.w3.org/1999/xlink" viewBox="0 0 146 146">
  <defs>
    <style>
      .cls-1 {
        fill: url(#linear-gradient);
      }

      .cls-2 {
        fill: #fff;
      }
    </style>
    <linearGradient id="linear-gradient" y1="0.491" x2="1" y2="0.509" gradientUnits="objectBoundingBox">
      <stop offset="0" stop-color="#043f79"/>
      <stop offset="1" stop-color="#06a2d9"/>
    </linearGradient>
  </defs>
  <g id="Groupe_2" data-name="Groupe 2" transform="translate(-302 -139)">
    <g id="Groupe_1" data-name="Groupe 1">
      <rect id="Rectangle_arrondi_1" data-name="Rectangle arrondi 1" class="cls-1" width="146" height="146" rx="70.5" transform="translate(302 139)"/>
      <path id="Forme_5" data-name="Forme 5" class="cls-2" d="M408.317,189.085H390.262v-5.27a9.652,9.652,0,0,0-9.475-9.8h-11.57a9.654,9.654,0,0,0-9.478,9.8v5.27H343.681a8.83,8.83,0,0,0-8.668,8.963v38.987A8.83,8.83,0,0,0,343.681,246h64.636a8.83,8.83,0,0,0,8.668-8.963V198.048A8.83,8.83,0,0,0,408.317,189.085Zm-38.4,30.2h11.371v2.176a3.452,3.452,0,0,1-3.39,3.505h-4.589a3.454,3.454,0,0,1-3.392-3.505Zm0-3.49v-.938a3.454,3.454,0,0,1,3.392-3.505h4.589a3.452,3.452,0,0,1,3.39,3.505v.938Zm7.981-6.919h-4.589a5.892,5.892,0,0,0-5.786,5.98v.938H346.6a7.506,7.506,0,0,1-6.817-4.544v-13.2a3.972,3.972,0,0,1,3.9-4.032h64.636a3.972,3.972,0,0,1,3.9,4.032v13.2A7.506,7.506,0,0,1,405.4,215.8h-21.72v-.938A5.892,5.892,0,0,0,377.895,208.878Zm-13.368-25.063a4.777,4.777,0,0,1,4.69-4.849h11.57a4.775,4.775,0,0,1,4.687,4.849v5.27H364.527Zm43.79,57.253H343.681a3.972,3.972,0,0,1-3.9-4.032v-20.3a10.565,10.565,0,0,0,6.817,2.553h20.921v2.176a5.892,5.892,0,0,0,5.786,5.981h4.589a5.892,5.892,0,0,0,5.784-5.981v-2.176H405.4a10.566,10.566,0,0,0,6.818-2.553v20.3A3.972,3.972,0,0,1,408.317,241.067Z"/>
    </g>
  </g>
</svg>
