<svg xmlns="http://www.w3.org/2000/svg" xmlns:xlink="http://www.w3.org/1999/xlink" viewBox="0 0 145 145">
  <defs>
    <style>
      .cls-1 {
        fill: url(#linear-gradient);
      }

      .cls-2 {
        fill: #fff;
      }
    </style>
    <linearGradient id="linear-gradient" x1="-0.25" y1="0.487" x2="1.25" y2="0.513" gradientUnits="objectBoundingBox">
      <stop offset="0" stop-color="#002d68"/>
      <stop offset="1" stop-color="#16baf1"/>
    </linearGradient>
  </defs>
  <g id="Groupe_1" data-name="Groupe 1" transform="translate(-302 -140)">
    <circle id="Ellipse_1" data-name="Ellipse 1" class="cls-1" cx="72.5" cy="72.5" r="72.5" transform="translate(302 140)"/>
    <path id="Forme_1" data-name="Forme 1" class="cls-2" d="M417.521,200.493a36.971,36.971,0,0,0-23.633-20.711c-35.317-4.789-42.28,26.967-42.28,26.967s-20.643,8.822-22.632,10.586,0,5.293,0,5.293c3.233,6.049,11.191,3.528,11.191,3.528s8.953,8.821,22.384,8.065,28.353-12.6,28.353-12.6c10.588,2.7,25.616,5.165,30.093,3.889v-8.084A41.242,41.242,0,0,0,417.521,200.493ZM361.556,230.44c-10.2,0-25.617-11.594-25.617-11.594l17.161-7.813s22.349,7.885,31.089,9.073C384.189,220.107,371.753,230.44,361.556,230.44Zm27.63-15.621a2.924,2.924,0,0,1-3.532,1.739c-30.316-8.045-27.579-8.566-30.316-9.78,0,0,8.7-26.241,35.316-23.216C390.655,183.562,396.605,195.39,389.186,214.82Zm27.335,5.917c-4.043.331-16.527-1.587-21.852-2.536a9.378,9.378,0,0,1-1.2-.294.824.824,0,0,1-.49-1.106c5.171-12.688,2.648-31.464,2.648-31.464C418.51,192.152,416.521,220.737,416.521,220.737Z"/>
  </g>
</svg>
