<svg xmlns="http://www.w3.org/2000/svg" xmlns:xlink="http://www.w3.org/1999/xlink" viewBox="0 0 54.863 36.562">
  <defs>
    <style>
      .cls-1 {
        fill: url(#linear-gradient);
      }
    </style>
    <linearGradient id="linear-gradient" y1="0.526" x2="1" y2="0.474" gradientUnits="objectBoundingBox">
      <stop offset="0" stop-color="#014188"/>
      <stop offset="0.42" stop-color="#0c70b0"/>
      <stop offset="1" stop-color="#169ed8"/>
    </linearGradient>
  </defs>
  <path id="Forme_3" data-name="Forme 3" class="cls-1" d="M48.206,121.276a2.252,2.252,0,0,0,.122.836c.026.089.03.182.065.269.017.043.049.076.069.118a2.864,2.864,0,0,0,.213.363,2.832,2.832,0,0,0,.25.348c.03.033.046.075.077.108l14.97,15.395a2.751,2.751,0,0,0,3.969,0,2.943,2.943,0,0,0,0-4.082L57.763,124.163h42.5a2.888,2.888,0,0,0,0-5.773h-42.5l10.178-10.467a2.943,2.943,0,0,0,0-4.082,2.751,2.751,0,0,0-3.969,0L49,119.236c-.031.032-.048.074-.077.108a2.829,2.829,0,0,0-.25.347,2.873,2.873,0,0,0-.213.364c-.019.042-.051.074-.069.118-.035.087-.039.18-.065.269a2.253,2.253,0,0,0-.122.836Z" transform="translate(-48.206 -102.995)"/>
</svg>
