<svg xmlns="http://www.w3.org/2000/svg" xmlns:xlink="http://www.w3.org/1999/xlink" viewBox="0 0 175 79">
  <defs>
    <style>
      .cls-1 {
        font-size: 70.276px;
        font-family: ArialMT, Arial;
        letter-spacing: -0.018em;
      }

      .cls-2 {
        fill: url(#linear-gradient);
      }
    </style>
    <linearGradient id="linear-gradient" x1="-0.25" y1="0.458" x2="1.25" y2="0.542" gradientUnits="objectBoundingBox">
      <stop offset="0" stop-color="#002d68"/>
      <stop offset="1" stop-color="#16baf1"/>
    </linearGradient>
  </defs>
  <g id="R么les" transform="translate(-286.732 -318.214)">
    <text id="R么les-2" data-name="R么les" class="cls-1" transform="translate(286.732 382.214)"><tspan x="0" y="0">R么les</tspan></text>
    <path id="Gradient_Overlay" data-name="Gradient Overlay" class="cls-2" d="M292.257,382.214V331.909h22.3q6.726,0,10.226,1.355a11.182,11.182,0,0,1,5.593,4.787,14.281,14.281,0,0,1,2.093,7.583,12.651,12.651,0,0,1-3.466,9.025q-3.466,3.672-10.706,4.667a17.264,17.264,0,0,1,4.015,2.5,34.59,34.59,0,0,1,5.525,6.691l8.75,13.691h-8.373l-6.657-10.466q-2.917-4.529-4.8-6.932a15.1,15.1,0,0,0-3.38-3.363,9.992,9.992,0,0,0-3.037-1.338,20,20,0,0,0-3.706-.24h-7.721v22.339Zm6.657-28.1h14.309a21.46,21.46,0,0,0,7.137-.944,7.6,7.6,0,0,0,3.912-3.02,8.167,8.167,0,0,0,1.338-4.512,7.5,7.5,0,0,0-2.591-5.868q-2.591-2.3-8.184-2.3H298.914Zm39.638,9.883q0-10.123,5.628-15a16.957,16.957,0,0,1,11.461-4.049,16.35,16.35,0,0,1,12.285,4.924q4.77,4.924,4.77,13.606,0,7.034-2.11,11.066a14.939,14.939,0,0,1-6.142,6.262,17.883,17.883,0,0,1-8.8,2.23q-7.652,0-12.37-4.907T338.552,363.993Zm6.348,0q0,7,3.054,10.483a10.169,10.169,0,0,0,15.339-.017q3.054-3.5,3.054-10.672,0-6.76-3.071-10.243a10.183,10.183,0,0,0-15.321-.017Q344.9,356.993,344.9,363.993Zm10.809-28.584-3.878,5.833h-7.069l7.412-9.608h6.588l7.721,9.608h-7Zm22.824,46.8V331.909h6.177v50.305Zm39.432-11.736,6.383.789a15.572,15.572,0,0,1-5.593,8.682,16.815,16.815,0,0,1-10.432,3.088q-8,0-12.679-4.924T390.959,364.3q0-9.2,4.735-14.275a16.029,16.029,0,0,1,12.285-5.079,15.58,15.58,0,0,1,11.941,4.976q4.632,4.976,4.632,14,0,.549-.034,1.647H397.342q.343,6.005,3.4,9.2a10.111,10.111,0,0,0,7.618,3.191,9.451,9.451,0,0,0,5.8-1.784A11.844,11.844,0,0,0,417.965,370.478Zm-20.28-9.986h20.349q-.412-4.6-2.333-6.9a9.466,9.466,0,0,0-7.652-3.569,9.812,9.812,0,0,0-7.155,2.848A11.272,11.272,0,0,0,397.685,360.493Zm30.682,10.843,6.108-.961A8.537,8.537,0,0,0,437.34,376a9.987,9.987,0,0,0,6.571,1.956q4.255,0,6.314-1.733a5.182,5.182,0,0,0,2.059-4.066,3.751,3.751,0,0,0-1.819-3.294,26.79,26.79,0,0,0-6.314-2.093,57.616,57.616,0,0,1-9.419-2.968,8.99,8.99,0,0,1-5.336-8.356,9.385,9.385,0,0,1,1.115-4.512,10,10,0,0,1,3.037-3.449,12.732,12.732,0,0,1,3.929-1.8,18.683,18.683,0,0,1,5.336-.738,21.092,21.092,0,0,1,7.532,1.235,10.244,10.244,0,0,1,4.787,3.346,13.074,13.074,0,0,1,2.128,5.645L451.22,356a6.606,6.606,0,0,0-2.385-4.392,8.723,8.723,0,0,0-5.576-1.578q-4.255,0-6.074,1.407a4.1,4.1,0,0,0-1.819,3.294,3.409,3.409,0,0,0,.755,2.162,5.447,5.447,0,0,0,2.368,1.647q.927.343,5.456,1.578a75.946,75.946,0,0,1,9.145,2.865,9.278,9.278,0,0,1,4.066,3.243,9.051,9.051,0,0,1,1.476,5.284,10.37,10.37,0,0,1-1.8,5.816,11.644,11.644,0,0,1-5.2,4.221,18.923,18.923,0,0,1-7.686,1.493q-7.1,0-10.826-2.951T428.367,371.336Z"/>
  </g>
</svg>
